<?xml version="1.0" encoding="UTF-8"?>
<svg xmlns="http://www.w3.org/2000/svg" xmlns:xlink="http://www.w3.org/1999/xlink" width="24pt" height="24pt" viewBox="0 0 24 24" version="1.1">
<g id="surface1">
<path style=" stroke:none;fill-rule:nonzero;fill:rgb(0%,0%,0%);fill-opacity:1;" d="M 23.230469 0 L 0.769531 0 C 0.34375 0 0 0.34375 0 0.769531 L 0 23.230469 C 0 23.65625 0.34375 24 0.769531 24 L 23.230469 24 C 23.65625 24 24 23.65625 24 23.230469 L 24 0.769531 C 24 0.34375 23.65625 0 23.230469 0 Z M 11.371094 14.84375 C 10.644531 15.480469 9.714844 15.828125 8.753906 15.828125 C 6.59375 15.828125 4.839844 14.109375 4.839844 11.996094 C 4.839844 9.886719 6.59375 8.171875 8.753906 8.171875 C 9.714844 8.171875 10.640625 8.519531 11.363281 9.148438 C 11.660156 9.410156 11.691406 9.863281 11.429688 10.160156 C 11.167969 10.457031 10.714844 10.488281 10.417969 10.226562 C 9.960938 9.824219 9.367188 9.601562 8.753906 9.601562 C 7.382812 9.601562 6.269531 10.675781 6.269531 11.996094 C 6.269531 13.320312 7.382812 14.398438 8.753906 14.398438 C 9.367188 14.398438 9.960938 14.171875 10.429688 13.765625 C 10.726562 13.503906 11.179688 13.535156 11.4375 13.832031 C 11.699219 14.128906 11.667969 14.582031 11.371094 14.84375 Z M 18.445312 12.460938 C 18.839844 12.460938 19.160156 12.78125 19.160156 13.175781 C 19.160156 13.574219 18.839844 13.894531 18.445312 13.894531 L 17.609375 13.894531 L 17.351562 15.039062 C 17.277344 15.371094 16.980469 15.59375 16.652344 15.59375 C 16.601562 15.59375 16.546875 15.589844 16.496094 15.578125 C 16.109375 15.492188 15.867188 15.105469 15.957031 14.722656 L 16.144531 13.894531 L 14.59375 13.894531 L 14.332031 15.039062 C 14.257812 15.371094 13.960938 15.59375 13.636719 15.59375 C 13.582031 15.59375 13.527344 15.589844 13.476562 15.578125 C 13.089844 15.492188 12.847656 15.105469 12.9375 14.722656 L 13.125 13.890625 C 12.738281 13.878906 12.429688 13.566406 12.429688 13.175781 C 12.429688 12.78125 12.753906 12.460938 13.148438 12.460938 L 13.449219 12.460938 L 13.65625 11.539062 L 13.148438 11.539062 C 12.753906 11.539062 12.429688 11.21875 12.429688 10.824219 C 12.429688 10.425781 12.753906 10.105469 13.148438 10.105469 L 13.980469 10.105469 L 14.242188 8.960938 C 14.328125 8.578125 14.710938 8.335938 15.097656 8.421875 C 15.484375 8.511719 15.726562 8.894531 15.636719 9.277344 L 15.449219 10.105469 L 17 10.105469 L 17.261719 8.960938 C 17.347656 8.578125 17.730469 8.335938 18.117188 8.421875 C 18.503906 8.511719 18.746094 8.894531 18.65625 9.277344 L 18.46875 10.109375 C 18.855469 10.121094 19.160156 10.433594 19.160156 10.824219 C 19.160156 11.21875 18.839844 11.539062 18.445312 11.539062 L 18.144531 11.539062 L 17.9375 12.460938 Z M 18.445312 12.460938 "/>
<path style=" stroke:none;fill-rule:nonzero;fill:rgb(0%,0%,0%);fill-opacity:1;" d="M 14.917969 12.460938 L 16.46875 12.460938 L 16.675781 11.539062 L 15.125 11.539062 Z M 14.917969 12.460938 "/>
</g>
</svg>
