<?xml version="1.0" encoding="UTF-8"?>
<svg xmlns="http://www.w3.org/2000/svg" xmlns:xlink="http://www.w3.org/1999/xlink" width="38pt" height="24pt" viewBox="0 0 38 24" version="1.1">
<g id="surface1">
<path style=" stroke:none;fill-rule:nonzero;fill:rgb(38.431373%,11.764706%,89.803922%);fill-opacity:1;" d="M 1.929688 12.21875 C 1.832031 12.117188 1.714844 12.035156 1.585938 11.976562 C 1.453125 11.917969 1.316406 11.890625 1.171875 11.890625 C 1.03125 11.890625 0.890625 11.917969 0.761719 11.972656 C 0.628906 12.03125 0.511719 12.113281 0.414062 12.21875 C 0.316406 12.316406 0.238281 12.4375 0.1875 12.566406 C 0.132812 12.699219 0.105469 12.839844 0.105469 12.980469 C 0.105469 13.121094 0.132812 13.261719 0.1875 13.390625 C 0.238281 13.523438 0.320312 13.640625 0.417969 13.742188 C 0.613281 13.949219 0.890625 14.066406 1.175781 14.058594 C 1.460938 14.0625 1.734375 13.945312 1.933594 13.742188 C 2.035156 13.644531 2.113281 13.527344 2.167969 13.394531 C 2.222656 13.265625 2.25 13.125 2.25 12.984375 C 2.25 12.839844 2.222656 12.699219 2.167969 12.570312 C 2.113281 12.4375 2.03125 12.316406 1.929688 12.21875 Z M 14.605469 9.753906 C 14.589844 10.433594 14.621094 11.117188 14.703125 11.796875 L 14.664062 11.796875 C 14.582031 11.628906 14.390625 11.320312 14.105469 10.867188 L 7.199219 0 L 5.105469 0 L 5.105469 13.871094 L 6.714844 13.871094 L 6.714844 3.84375 C 6.734375 3.210938 6.707031 2.574219 6.640625 1.941406 L 6.699219 1.941406 C 6.816406 2.242188 6.964844 2.535156 7.140625 2.808594 L 14.230469 13.871094 L 16.214844 13.871094 L 16.214844 0 L 14.605469 0 Z M 27.140625 12.347656 L 21.445312 12.347656 L 21.445312 7.542969 L 26.429688 7.542969 L 26.429688 6.078125 L 21.445312 6.078125 L 21.445312 1.46875 L 26.792969 1.46875 L 26.792969 0 L 19.796875 0 L 19.796875 13.871094 L 27.128906 13.871094 Z M 28.371094 0 L 28.371094 1.46875 L 32.339844 1.46875 L 32.339844 13.871094 L 33.949219 13.871094 L 33.949219 1.46875 L 37.964844 1.46875 L 37.964844 0 Z M 12.582031 17.320312 C 12.179688 17.480469 11.816406 17.726562 11.515625 18.039062 C 11.207031 18.371094 10.964844 18.761719 10.808594 19.1875 C 10.648438 19.617188 10.578125 20.070312 10.597656 20.519531 C 10.566406 21.359375 10.859375 22.179688 11.414062 22.804688 C 11.695312 23.097656 12.035156 23.328125 12.410156 23.476562 C 12.785156 23.628906 13.1875 23.695312 13.589844 23.679688 C 14.195312 23.699219 14.796875 23.574219 15.347656 23.304688 L 15.351562 22.597656 C 14.851562 22.890625 14.277344 23.039062 13.695312 23.023438 C 13.382812 23.035156 13.070312 22.980469 12.785156 22.863281 C 12.496094 22.742188 12.234375 22.5625 12.023438 22.332031 C 11.582031 21.816406 11.351562 21.148438 11.386719 20.464844 C 11.351562 19.746094 11.597656 19.042969 12.070312 18.503906 C 12.292969 18.253906 12.570312 18.058594 12.875 17.925781 C 13.183594 17.792969 13.515625 17.730469 13.847656 17.738281 C 14.378906 17.730469 14.898438 17.863281 15.363281 18.121094 L 15.363281 17.359375 C 14.882812 17.164062 14.363281 17.074219 13.847656 17.089844 C 13.414062 17.085938 12.980469 17.160156 12.582031 17.320312 Z M 20.132812 19.496094 C 19.722656 19.0625 19.144531 18.832031 18.550781 18.863281 C 18.238281 18.847656 17.929688 18.898438 17.640625 19.011719 C 17.347656 19.125 17.085938 19.292969 16.859375 19.511719 C 16.644531 19.753906 16.476562 20.035156 16.367188 20.34375 C 16.257812 20.65625 16.210938 20.980469 16.234375 21.308594 C 16.203125 21.929688 16.417969 22.539062 16.832031 23.003906 C 17.035156 23.226562 17.285156 23.402344 17.5625 23.519531 C 17.84375 23.636719 18.140625 23.695312 18.441406 23.683594 C 18.746094 23.691406 19.054688 23.632812 19.339844 23.515625 C 19.621094 23.398438 19.878906 23.21875 20.085938 22.988281 C 20.511719 22.507812 20.730469 21.882812 20.699219 21.242188 C 20.734375 20.601562 20.53125 19.980469 20.132812 19.496094 Z M 19.578125 22.613281 C 19.308594 22.925781 18.90625 23.09375 18.496094 23.070312 C 18.289062 23.082031 18.082031 23.042969 17.890625 22.960938 C 17.699219 22.878906 17.53125 22.757812 17.390625 22.601562 C 17.101562 22.242188 16.953125 21.785156 16.980469 21.324219 C 16.953125 20.847656 17.101562 20.375 17.390625 20 C 17.527344 19.839844 17.695312 19.714844 17.886719 19.632812 C 18.078125 19.550781 18.289062 19.511719 18.492188 19.519531 C 18.699219 19.507812 18.902344 19.546875 19.089844 19.628906 C 19.277344 19.710938 19.445312 19.835938 19.578125 19.992188 C 19.851562 20.375 19.988281 20.839844 19.957031 21.3125 C 19.984375 21.773438 19.851562 22.238281 19.578125 22.613281 Z M 23.085938 19.199219 C 22.859375 19.402344 22.695312 19.664062 22.613281 19.960938 L 22.613281 19.007812 L 21.855469 19.007812 L 21.855469 23.574219 L 22.613281 23.574219 L 22.613281 21.242188 C 22.585938 20.820312 22.695312 20.398438 22.921875 20.042969 C 23.003906 19.910156 23.113281 19.800781 23.246094 19.726562 C 23.378906 19.648438 23.527344 19.605469 23.679688 19.601562 C 23.871094 19.585938 24.066406 19.636719 24.230469 19.746094 L 24.230469 18.992188 C 24.089844 18.949219 23.945312 18.925781 23.800781 18.933594 C 23.539062 18.929688 23.289062 19.023438 23.085938 19.199219 Z M 28.660156 21.082031 C 28.695312 20.503906 28.523438 19.933594 28.175781 19.472656 C 28.003906 19.277344 27.789062 19.121094 27.550781 19.019531 C 27.3125 18.921875 27.054688 18.875 26.796875 18.890625 C 26.511719 18.882812 26.226562 18.9375 25.964844 19.054688 C 25.703125 19.171875 25.472656 19.34375 25.28125 19.5625 C 24.871094 20.042969 24.660156 20.664062 24.6875 21.296875 C 24.648438 21.925781 24.84375 22.550781 25.238281 23.042969 C 25.429688 23.253906 25.664062 23.417969 25.925781 23.527344 C 26.1875 23.636719 26.46875 23.683594 26.753906 23.667969 C 27.3125 23.695312 27.867188 23.546875 28.332031 23.234375 L 28.332031 22.550781 C 27.933594 22.875 27.4375 23.054688 26.925781 23.058594 C 26.726562 23.070312 26.527344 23.042969 26.34375 22.96875 C 26.160156 22.894531 25.988281 22.789062 25.847656 22.648438 C 25.578125 22.316406 25.441406 21.898438 25.464844 21.472656 L 28.667969 21.472656 Z M 25.457031 20.871094 C 25.5 20.507812 25.65625 20.167969 25.902344 19.90625 C 26.128906 19.664062 26.445312 19.527344 26.777344 19.53125 C 26.933594 19.523438 27.089844 19.550781 27.234375 19.609375 C 27.378906 19.671875 27.507812 19.761719 27.609375 19.878906 C 27.820312 20.164062 27.925781 20.507812 27.910156 20.859375 Z M 25.457031 20.871094 "/>
</g>
</svg>
