<?xml version="1.0" encoding="utf-8"?>
<!-- Generator: Adobe Illustrator 23.0.5, SVG Export Plug-In . SVG Version: 6.00 Build 0)  -->
<svg version="1.1" id="f7bb3db6-0aca-42e3-bcc4-5e9b3a55e19d"
	 xmlns="http://www.w3.org/2000/svg" xmlns:xlink="http://www.w3.org/1999/xlink" x="0px" y="0px" viewBox="0 0 700 500"
	 style="enable-background:new 0 0 700 500;" xml:space="preserve">
<style type="text/css">
	.st0{fill:#3F3D56;}
	.st1{fill:#E6E8EC;}
	.st2{fill:#90CAF9;}
	.st3{opacity:0.3;fill:#FFFFFF;enable-background:new    ;}
	.st4{fill:#FFFFFF;}
	.st5{fill:#FFB8B8;}
	.st6{fill:#2F2E41;}
	.st7{fill:#F2F2F2;}
</style>
<title>Mobile_application</title>
<path class="st0" d="M524.8,500c-20.9-3.3-41-6.1-60.3-8.4l7.4-14.9c-2.6-0.9-13.8,7.7-13.8,7.7l9.5-43
	c-12.9,1.7-18.9,45.6-18.9,45.6l-14.6-14.6l7.2,16.6c-59.1-6.2-110-8.1-152.9-7.7l6.4-12.7c-2.6-0.9-13.8,7.7-13.8,7.7l9.5-43
	c-12.9,1.7-18.9,45.6-18.9,45.6l-14.6-14.6l7.6,17.5c-29.4,0.9-58.6,3.2-87.7,7.1c6.3-19.8,28.5-38.8,28.5-38.8
	c-17,5.3-25.9,13.9-30.5,22c-0.9-40.6,5.3-81.1,18.5-119.6c0,0-34.4,77.4-29.2,129l0.7,9.2c-29.9,4.7-44.9,9.3-44.9,9.3H524.8z"/>
<path class="st0" d="M603.7,393.5c-5.7,0-10.3-4.6-10.3-10.3s4.6-10.3,10.3-10.3c5.7,0,10.3,4.6,10.3,10.3
	C614,388.8,609.4,393.5,603.7,393.5z M603.7,374.5c-4.8,0-8.6,3.9-8.6,8.6s3.9,8.6,8.6,8.6s8.6-3.9,8.6-8.6
	C612.2,378.4,608.4,374.6,603.7,374.5z"/>
<path class="st0" d="M686.1,498.6h-17v-17h17V498.6z M670.4,497.3h14.4V483h-14.4V497.3z"/>
<path class="st0" d="M111.2,499.6l-11.6-12.4l12.4-11.6l11.6,12.4L111.2,499.6z M101.5,487.2l9.8,10.5l10.5-9.8l-9.8-10.5
	L101.5,487.2z"/>
<rect x="-9.6" y="497.7" class="st0" width="737.8" height="1.7"/>
<path class="st0" d="M447.8,115v56.5c0,1.1-0.9,2-2,2h-1.4v294.3c0,17-13.7,30.7-30.7,30.7H229.9c-17,0-30.7-13.7-30.7-30.7
	c0,0,0,0,0,0v-284h-1c-0.8,0-1.4-0.6-1.4-1.4v-32.1c0-0.8,0.6-1.4,1.4-1.4c0,0,0,0,0,0h1v-12.1h-1c-0.8,0-1.5-0.7-1.5-1.5v-31.7
	c0-0.8,0.7-1.5,1.5-1.5h1V85.6h-1c-0.7,0-1.3-0.6-1.3-1.3c0,0,0,0,0,0V67c0-0.7,0.6-1.3,1.3-1.3h1v-35c0-17,13.7-30.7,30.7-30.7
	h183.9c17,0,30.7,13.7,30.7,30.7v82.4h1.4C446.9,113.1,447.8,114,447.8,115z"/>
<path class="st1" d="M300.8,15.7h29.9c1.2,0,2.2,1,2.2,2.2v2.6c0,1.2-1,2.2-2.2,2.2h-29.9c-1.2,0-2.2-1-2.2-2.2v-2.6
	C298.6,16.7,299.6,15.7,300.8,15.7z"/>
<circle class="st1" cx="342" cy="19.2" r="3.9"/>
<path class="st2" d="M431.3,33.6v440c0,5.8-2.5,11.3-6.9,15c-3.6,3-8.1,4.7-12.8,4.7H232.9c-3.2,0-6.3-0.8-9.1-2.2
	c-0.7-0.3-1.3-0.7-1.9-1.1c-5.5-3.7-8.7-9.8-8.7-16.4v-440c0-10.9,8.8-19.8,19.8-19.8c0,0,0,0,0,0h26.7v3.4c0,9,7.3,16.3,16.3,16.3
	h90.8c9,0,16.3-7.3,16.3-16.3v-3.4h28.5C422.5,13.8,431.3,22.6,431.3,33.6C431.3,33.5,431.3,33.6,431.3,33.6z"/>
<path class="st3" d="M429.7,408.3v62.1c0,5.7-2.5,11.1-6.8,14.8c-3.5,3-8,4.7-12.6,4.7h-176c-3.1,0-6.2-0.7-9-2.2
	c-0.7-0.3-1.3-0.7-1.9-1.1c-5.4-3.6-8.6-9.7-8.6-16.2v-62C275.9,353.3,368.6,353.3,429.7,408.3z"/>
<path class="st3" d="M419.3,487.6c-2.8,1.5-5.9,2.2-9,2.2h-176c-3.1,0-6.2-0.7-9-2.2c22.3-53.6,83.8-79,137.4-56.7
	C388.2,441.6,408.6,461.9,419.3,487.6L419.3,487.6z"/>
<path class="st3" d="M381,488.6c-1.7,0.9-3.6,1.3-5.5,1.3H269c-1.9,0-3.8-0.5-5.4-1.3c13.5-32.4,50.7-47.8,83.1-34.3
	C362.2,460.8,374.5,473.1,381,488.6z"/>
<path class="st4" d="M367,185.1c-17.7,0-37-3.4-52.2-14.7c-21.1-15.8-47-15-65.1-11.5c-12,2.3-23.6,6.2-34.6,11.5l-0.8-1.5
	c11.1-5.4,22.9-9.3,35.1-11.7c18.4-3.6,44.9-4.4,66.5,11.8c40.4,30.3,112.8,3.1,113.5,2.8l0.6,1.6c-13.6,4.8-27.6,8.3-41.9,10.2
	C381.2,184.6,374.1,185.1,367,185.1z"/>
<path class="st3" d="M214.8,169.7c0,0,59.3-14.4,100.6,5.3s114.4-0.1,114.4-0.1"/>
<path class="st3" d="M270.8,192.1c-7.2,0-14.3-0.7-21.4-2.1c-12.1-2.4-23.9-6.3-35.1-11.7l0.8-1.5c11,5.3,22.6,9.2,34.6,11.5
	c18.1,3.5,44,4.3,65.1-11.5c21.6-16.2,51.8-16.1,73.3-13.2c14.3,1.9,28.3,5.4,41.9,10.2l-0.6,1.6c-0.7-0.3-73.1-27.5-113.5,2.8
	C301.7,188.8,285.5,192.1,270.8,192.1z"/>
<path class="st3" d="M271.1,185.1c-29.8,0-56.2-10.7-56.6-10.8l0.7-1.6c0.6,0.2,59.4,24,99.9,0.1c41.1-24.4,114.3-2.6,115-2.4
	l-0.5,1.6c-0.7-0.2-73.2-21.7-113.7,2.2C302,182.4,286.1,185.1,271.1,185.1z"/>
<path class="st3" d="M214.8,172.2c0,0,59.3,19.7,100.6,0s114.4-1.9,114.4-1.9"/>
<path class="st5" d="M445.1,224.8v25.1c0,0,2,28.1,13,42.1c0,0,18.1,25.6,20.6,20.1l-3.1-18.2l-10.5-9.9l-5.5-31.1l-1.5-28.1
	L445.1,224.8z"/>
<polygon class="st5" points="555.9,451.5 555.9,470 540.8,475.6 540.8,454 "/>
<polygon class="st5" points="525.3,449.5 535.3,472 521.3,478.1 518.3,456 "/>
<path class="st6" d="M550.4,276.5c0,0,20.1,181,12.5,181.5c-7.5,0.5-22.1,10-22.1,3.5s-11.5-91.3-11.5-91.3l-11-43.6v60.2l11.5,68.2
	c0,0-11,14.5-19.1,6l-17-66.7c0,0-22.6-101.3-21.6-109.3C472.1,285,523.8,240.9,550.4,276.5z"/>
<path class="st6" d="M546.4,471c0,0,4-8.5,13-3l7.5,9c0,0,19.4,16.1,5.6,19.5c-14.2,3.5-22.7-0.2-22.7-0.2s-2.5-1.5-4.5-1.5
	s-6.5-3.5-6.5-4.5c0-1,1.5-18.8,1.5-18.8c1.2-0.6,2.6-0.4,3.5,0.5C545.3,473.5,546.4,471,546.4,471z"/>
<path class="st6" d="M516.8,468c0,0,9.5-7.5,14,1c0,0,2.8,1,3.2,0s2.8-1.5,2.8,4c0,5.5,2.7,19.3,0.2,19.8c-2.5,0.5-5,2-4.5,4
	c0.5,2-2.7,2.3-14.3,1.8c-11.5-0.5-12-5-12-5s0-6.5,3-10S516.8,468,516.8,468z"/>
<path class="st5" d="M498.2,139.6c0,0-2.5,18.6,13.5,25.1c16,6.5-35.6,28.1-40.6,15.5c-5-12.5,1-16.5,1-16.5s5-5,0.5-18.6
	L498.2,139.6z"/>
<circle class="st5" cx="482.2" cy="130.5" r="22.1"/>
<path class="st7" d="M507.7,170.7c0,0-15,8-29.6,2s-14,20.1-14,20.1l7.5,19.6l52.2-5l-3.5-30.1L507.7,170.7z"/>
<path class="st0" d="M500.3,153.5c5.4,1.1,10,4.7,12.5,9.6l24.1,7.5l6,8.5l-7,61.7c0,0,13,12.5,13,19.6s16,31.1,8,28.1
	S534.3,275,534.3,275s-36.6,1.5-48.1,11.5s-16,7-16,7s-12-52.2-12.5-60.2c-0.5-8-14.5-56.2-14.5-56.2l25.1-14l6.4-7.2l17.7,28.3
	l16-19.6C508.2,164.6,500.3,158.4,500.3,153.5z"/>
<path class="st5" d="M550.4,217.8l3,16c0,0,13.5,50.1,11.5,67.2c0,0,1.5,38.1-7,33.6c-8.5-4.5-4-32.1-4-32.1l-12-49.6l-6.5-29.1
	L550.4,217.8z"/>
<path class="st0" d="M537.8,176.2l5,3c0,0,19.1,39.6,14.5,42.6s-24.1,9.5-24.1,9.5L537.8,176.2z"/>
<polygon class="st0" points="455.1,177.2 443.3,176.9 440.5,181.7 444.1,230.3 462.1,234.3 "/>
<path class="st6" d="M500.1,111.9l4-1.4c0,0-8.3-8.3-19.9-7.6l3.3-3.3c0,0-8-2.9-15.2,4.7c-3.8,4-8.2,8.7-10.9,14h-4.3l1.8,3.6
	l-6.2,3.6l6.4-0.6c-0.6,3.1-0.4,6.2,0.6,9.2l1.4,4c0,0,5.8-11.6,5.8-13v3.6c0,0,4-3.3,4-5.4l2.2,2.5l1.1-4l13.4,4l-2.2-3.3l8.3,1.1
	l-3.3-4c0,0,9.4,4.7,9.8,8.7c0.4,4,2.8,9.2,2.8,9.2l3-3.5C506,133.8,510.6,117.3,500.1,111.9z"/>
<ellipse class="st5" cx="500.7" cy="130.8" rx="1.8" ry="4.5"/>
<path class="st0" d="M7.6,470.5C18.3,490.3,41,498.8,41,498.8s5.4-23.6-5.3-43.5S2.3,427,2.3,427S-3.1,450.6,7.6,470.5z"/>
<path class="st2" d="M14.9,463.9c19.3,11.6,26.7,34.7,26.7,34.7s-23.9,4.2-43.2-7.4s-26.7-34.7-26.7-34.7S-4.4,452.3,14.9,463.9z"/>
<path class="st3" d="M214.8,169.7c0,0,59.3-31,100.6,0s114.4,2.9,114.4,2.9"/>
<circle class="st4" cx="322.5" cy="475.3" r="9.5"/>
</svg>
