<?xml version="1.0" encoding="utf-8"?>
<!-- Generator: Adobe Illustrator 23.0.5, SVG Export Plug-In . SVG Version: 6.00 Build 0)  -->
<svg version="1.1" id="a33e59cf-d648-43ac-a922-97b4db9e4e4a"
	 xmlns="http://www.w3.org/2000/svg" xmlns:xlink="http://www.w3.org/1999/xlink" x="0px" y="0px" viewBox="0 0 700 500"
	 style="enable-background:new 0 0 700 500;" xml:space="preserve">
<style type="text/css">
	.st0{fill:#E6E6E6;}
	.st1{fill:#A0616A;}
	.st2{fill:#575A89;}
	.st3{fill:#2F2E41;}
	.st4{fill:#90CAF9;}
	.st5{opacity:0.2;enable-background:new    ;}
	.st6{fill:#3F3D56;}
	.st7{fill:#FFFFFF;}
	.st8{fill:#FFB8B8;}
	.st9{fill:#9F616A;}
</style>
<title>develop_app</title>
<ellipse class="st0" cx="122.9" cy="488.4" rx="55.7" ry="11.6"/>
<path class="st1" d="M169.2,315.3l2.2,4.5c0,0,12.4,16.5,4.7,19.1c-7.6,2.6-11.7-15.7-11.7-15.7l-2-2.6L169.2,315.3z"/>
<path class="st2" d="M154.9,230.1l2-0.9c0,0,2.4,0.9,2.4,4.6c0,3.7-3,57.7-3,57.7l5.9,29.6l-8.1,1.5l-12.6-27.4L154.9,230.1z"/>
<path class="st2" d="M154.9,230.1l2-0.9c0,0,2.4,0.9,2.4,4.6c0,3.7-3,57.7-3,57.7l15.9,25.5l-10.4,7.4l-20.3-29.2L154.9,230.1z"/>
<path class="st3" d="M153.4,315.9c0,0,9.6,3.7,8.9,10.4c-0.7,6.7-10.4,139.1-10.4,139.1l3,14.8l-28.1,0.7l-0.7-95.4l-20,95.4H78
	l20-167.9L153.4,315.9z"/>
<path class="st3" d="M151.2,477.1l6.7,6.7c0,0,15.5,3,11.8,8.1c-3.7,5.2-42.2-1.5-42.2-1.5l0.7-11.8L151.2,477.1z"/>
<path class="st3" d="M103.1,477.1l6.7,6.7c0,0,15.5,3,11.8,8.1c-3.7,5.2-42.2-1.5-42.2-1.5l0.7-11.8L103.1,477.1z"/>
<circle class="st1" cx="129.8" cy="185.7" r="17.8"/>
<polygon class="st1" points="140.9,196.1 139.4,226.4 116.4,213.1 119.4,196.1 "/>
<polygon class="st4" points="115.7,205.7 137.2,221.2 140.9,210.1 147.5,227.9 143.8,259.7 "/>
<path class="st2" d="M118,203.5l21.4,32.5l0.9-27.2l2.6,2.1c2.9,2.3,4.6,5.8,4.6,9.6l0,0l10.4,9.6l-3.7,37l-0.7,43.6
	c0,0,4.4,3.7,3,5.9s-7.4,7.4-14.1,7.4s-48.1-5.2-48.1-8.1c0-3,1.5-41.4,1.5-41.4v-51.8l17.8-13.3L118,203.5z"/>
<polygon class="st1" points="92.8,326.2 102.4,340.3 106.1,324 101.7,321.1 "/>
<rect x="112.5" y="366.2" transform="matrix(0.3463 -0.9381 0.9381 0.3463 -257.3022 364.6422)" class="st5" width="41.1" height="1.5"/>
<path class="st3" d="M119,168.3c0,0,2.2-11.1,14.8-8.9l-1.5,0.7c0,0,11.8-1.5,10.4,5.2c0,0,9.6,5.9,7.4,12.6
	c-1.3,3.9-2.3,7.8-3,11.8l-2.2-2.2c0,0-2.2-14.8-15.5-13.3c-10,1.1-14.1,5.8-15.1,9.2c-0.5,1.6-1.1,3.2-1.8,4.6l-0.8,0.2
	C111.6,188.3,107.2,172,119,168.3z"/>
<path class="st2" d="M103.9,222l-6.7-0.3l-1.4,1.1c-1.6,1.6-3.1,3.3-4.4,5.2c-1.5,2.2-20.7,56.2-20.7,56.2c-0.4,3.3,0.2,6.6,1.5,9.6
	c2.2,5.2,20,36.2,20,36.2l13.3-8.1l-17.8-36.2l12.6-17.8L103.9,222z"/>
<path class="st6" d="M497.5,113.3h-2.6V41.5c0-22.9-18.6-41.5-41.5-41.5c0,0,0,0,0,0h-152c-22.9,0-41.5,18.6-41.5,41.5c0,0,0,0,0,0
	v393.6c0,22.9,18.6,41.5,41.5,41.5c0,0,0,0,0,0h152c22.9,0,41.5-18.6,41.5-41.5c0,0,0,0,0,0V164.4h2.6L497.5,113.3z"/>
<path class="st0" d="M486.4,38.7v399.2c0,17.4-14.1,31.5-31.5,31.5H299.8c-17.4,0-31.5-14.1-31.5-31.5V38.7
	c0-17.4,14.1-31.5,31.5-31.5h18.8c-3.1,7.7,0.6,16.4,8.2,19.5c1.8,0.7,3.7,1.1,5.6,1.1h88.4c8.3,0,15-6.7,15-15
	c0-1.9-0.4-3.8-1.1-5.6h20.2C472.3,7.3,486.4,21.4,486.4,38.7z"/>
<rect x="299.1" y="246.6" class="st7" width="156.5" height="156.5"/>
<rect x="333.7" y="176.1" class="st7" width="88.3" height="6.6"/>
<rect x="321.8" y="193.3" class="st7" width="111.1" height="6.6"/>
<rect x="344.2" y="261.7" class="st0" width="60.9" height="4.6"/>
<rect x="344.2" y="275.2" class="st4" width="94.1" height="4.6"/>
<rect x="345.2" y="288" class="st0" width="76.7" height="4.6"/>
<rect x="344.2" y="302" class="st0" width="44.8" height="4.6"/>
<rect x="344.2" y="315.8" class="st4" width="67.6" height="4.6"/>
<rect x="316.4" y="260.3" class="st0" width="7.5" height="7.5"/>
<rect x="316.4" y="273.7" class="st4" width="7.5" height="7.5"/>
<rect x="316.4" y="286.5" class="st0" width="7.5" height="7.5"/>
<rect x="316.4" y="300.6" class="st0" width="7.5" height="7.5"/>
<rect x="316.4" y="314.3" class="st4" width="7.5" height="7.5"/>
<rect x="344.2" y="329.6" class="st0" width="60.9" height="4.6"/>
<rect x="344.2" y="343" class="st4" width="94.1" height="4.6"/>
<rect x="345.2" y="355.8" class="st0" width="76.7" height="4.6"/>
<rect x="344.2" y="369.8" class="st0" width="44.8" height="4.6"/>
<rect x="344.2" y="383.6" class="st0" width="67.6" height="4.6"/>
<rect x="316.4" y="328.1" class="st0" width="7.5" height="7.5"/>
<rect x="316.4" y="341.6" class="st4" width="7.5" height="7.5"/>
<rect x="316.4" y="354.4" class="st0" width="7.5" height="7.5"/>
<rect x="316.4" y="368.4" class="st0" width="7.5" height="7.5"/>
<rect x="316.4" y="382.1" class="st0" width="7.5" height="7.5"/>
<circle class="st7" cx="377.4" cy="105.1" r="51"/>
<path class="st4" d="M376.9,80.1c-13.9,0-25.2,11.3-25.2,25.2c0,13.9,11.3,25.2,25.2,25.2c13.9,0,25.2-11.3,25.2-25.2
	C402,91.3,390.8,80.1,376.9,80.1z M376.9,87.6c4.2,0,7.5,3.4,7.5,7.5c0,4.2-3.4,7.5-7.5,7.5c-4.2,0-7.5-3.4-7.5-7.5c0,0,0,0,0,0
	C369.4,91,372.8,87.6,376.9,87.6L376.9,87.6z M376.9,123.9c-6.1,0-11.7-3-15.1-8.1c0.1-5,10.1-7.8,15.1-7.8s15,2.8,15.1,7.8
	C388.6,120.9,383,123.9,376.9,123.9z"/>
<ellipse class="st0" cx="576" cy="482" rx="56.8" ry="11.6"/>
<path class="st8" d="M515.8,309.4l-7.5-1.3c0,0-15.2-7-16.2-1.7c-0.9,5.3,13.6,10,13.6,10l15.7-1.7L515.8,309.4z"/>
<polygon class="st2" points="559.2,255.5 548.8,303.1 513.9,308 512.6,322 557.5,322.1 580,281 "/>
<polygon class="st5" points="559.2,255.5 548.8,303.1 513.9,308 512.6,322 557.5,322.1 580,281 "/>
<path class="st8" d="M506.1,269.3l-5.3-5.4c0,0-8.3-14.6-12.2-10.8s5.3,16.1,5.3,16.1l13.7,7.7L506.1,269.3z"/>
<path class="st3" d="M579.5,240.4l6.6-1.6c9.3,0,16.9-7.5,16.9-16.8c0-1.1-0.1-2.3-0.3-3.4l0,0c0-12.2-9.8-22.1-22-22.1l0,0h0
	c-12.2,0-22.1,9.8-22.1,22l0,0c-2.7,9.3,2.7,19,12,21.7C573.4,241.1,576.5,241.2,579.5,240.4z"/>
<polygon class="st3" points="540.9,349.6 546.2,408 555.9,465.4 572.1,465.4 570,409.1 561.5,341 "/>
<path class="st3" d="M558.1,462.1l-10.8,6.5c0,0-17.3,2.1-14.1,7.6c3.2,5.4,41.1,2.2,41.1,0.1c0-2.2-1.1-14.1-3.2-14.1L558.1,462.1z
	"/>
<path class="st3" d="M588.8,344.6c0,0-0.3,8.3-7.9,21.3l1,40l38.9,49.8l-14.1,11.9l-47.5-54.1l-11.8-64.9l15.2-15.1L588.8,344.6z"/>
<path class="st3" d="M617.6,455.7c0,0,13,2.2,10.8,7.6s-7.6,30.3-21.7,27c0,0-6.5,0-4.3-4.3c1.3-2.6,2.8-5.1,4.3-7.6l0-14.1
	L617.6,455.7z"/>
<circle class="st8" cx="572.4" cy="225.3" r="16.2"/>
<polygon class="st8" points="580,236.2 580,254.5 562.7,254.5 564.8,236.1 "/>
<path class="st2" d="M590.6,351.9l-10.7-1.8c-13.7-2.3-27.7-1.7-41.2,1.7l4.9-48.3l0.6-6.3l1.4-13.5c0,0-4.7-17.8,2.2-23.8
	c8.4-7.3,15.8-13.2,15.8-13.2L580,248c9.2,18.3,7.2,41.2,1,66L590.6,351.9z"/>
<path class="st2" d="M572.8,250.5l-36.1,32.7L505.4,267l-6.6,8l27.6,24.3c3.9,2.8,8.9,3.2,13.2,1.1l35.2-17L572.8,250.5z"/>
<circle class="st3" cx="603.7" cy="202.9" r="10.5"/>
<path class="st3" d="M594.1,197.3c0-5.8,4.7-10.5,10.5-10.5c0.7,0,1.4,0.1,2.1,0.2c-5.2-2.5-11.5-0.2-13.9,5
	c-2.5,5.2-0.2,11.5,5,13.9c0.8,0.4,1.6,0.6,2.4,0.8C596.4,205,594.1,201.3,594.1,197.3z"/>
<path class="st3" d="M585.1,203.2l-14.1-2.6l-10.8,6.8c-5.4,3.4-8.4,9.7-7.6,16.1l10.9-2.8l2.4-6.1l0,0c1.6,2.6,3.7,4.7,6.3,6.2
	c6.2,3.5,7.6,11,8.3,19.1l11.9-6.5l7.6-11.9L585.1,203.2z"/>
<polygon class="st5" points="571.8,273.6 543.6,303.5 544.2,297.2 "/>
<g>
	<g>
		<circle class="st3" cx="229.9" cy="214.9" r="19.6"/>
		<polygon class="st9" points="208.8,460 205.1,476 214.1,476 217.8,457.9 		"/>
		<polygon class="st9" points="252.4,460 252.4,474.9 261.4,476 261.4,460 		"/>
		<path class="st9" d="M206.1,291c0,0,1.1,22.9,2.1,24.5c1.1,1.6,10.6,24.5,10.6,24.5l4.8-14.9c0,0-7.4-12.2-6.4-19.1
			c1.1-6.9,0.4-15.4,0.4-15.4L206.1,291z"/>
		<circle class="st9" cx="236.4" cy="220.8" r="14.9"/>
		<path class="st9" d="M224.2,222.4c0,0,0.5,21.3-3.2,24.5c-3.7,3.2,21.3,0.5,21.3,0.5s-5.3-14.9-1.1-18.1
			C245.5,226.1,224.2,222.4,224.2,222.4z"/>
		<path class="st3" d="M243.9,246.3c0,0-3.2-5.8-7.4-5.3c-4.3,0.5-18.1,1.6-18.6,2.7s-2.1,4.8-3.2,5.8c-1.1,1.1-9,2.7-9.6,9
			c-0.5,6.4,19.1,45.2,19.1,45.2s-2.7,9-2.1,11.2c0.5,2.1-2.7,8.5-2.1,11.2c0.5,2.7-8,18.6-3.7,39.3v33.5c0,0-14.4,57.9-10.1,62.2
			c4.3,4.3,18.6,1.6,21.3,0c2.7-1.6,13.8-81.9,13.8-81.9l5.3-27.1l0.5,59.5c0,0-1.1,50,2.7,51.6c3.7,1.6,18.1,2.1,19.1-1.1
			c0.8-2.5,4.9-68.7,6.6-97.7c0.6-10-0.2-20.1-2.3-29.9c-2.2-10-5.4-21.8-9.1-26.6c-6.9-9-11.2-37.7-11.2-37.7l9-16.5
			c0,0-5.3-5.3-8.5-5.3S243.9,246.3,243.9,246.3z"/>
		<path class="st3" d="M208.2,254.8l-2.8,1.9c0,0-2,34.2-0.4,36.4c1.6,2.1,12.7,1.1,13.5-0.8C219.4,290.5,208.2,254.8,208.2,254.8z"
			/>
		<path class="st9" d="M255.7,286c-1.6,10.8-2.9,20.4,5,29.1c8,8.8,17,16.6,26.9,23.3c1,2.6,15.3,21.6,16,14s-4.2-13.5-11.3-19.9
			s-16.9-20.3-22.4-27.9c-5.6-7.6-3.3-12.4-3.1-18.7C267,279.4,257.8,286.1,255.7,286z"/>
		<path class="st3" d="M261.4,466.3c0,0,0.5,6,2.1,7.5s5.8,3.7,5.3,9.6c-0.5,5.8-4,6.1-4,6.1l0.3-1.3l-1.6,0.5l-0.3,0.8h-14.9
			c0,0-0.3-5.6,0.3-8.2c0.5-2.7,0.5-15.4,2.1-14.9c1.6,0.5,5.8,1.1,6.9,3.2C258.7,471.7,261.9,471,261.4,466.3z"/>
		<path class="st3" d="M207.2,466.3c0,0-0.5,6-2.1,7.5s-5.8,3.7-5.3,9.6c0.5,5.8,4,6.1,4,6.1l-0.3-1.3l1.6,0.5l0.3,0.8h14.9
			c0,0,0.3-5.6-0.3-8.2c-0.5-2.7-0.5-15.4-2.1-14.9c-1.6,0.5-5.8,1.1-6.9,3.2C209.8,471.7,206.7,471,207.2,466.3z"/>
		<path class="st3" d="M254.5,252.2l7.4,1.6c0,0,0,11.7,2.1,16.5c2.1,4.8,5.8,15.9,4.3,16.5c-1.6,0.5-16.5,8-17.5,3.7
			C249.7,286.2,247.1,252.2,254.5,252.2z"/>
		<circle class="st3" cx="208.7" cy="189.1" r="19.6"/>
		<path class="st3" d="M191.8,205.3c8.8,6.3,21,4.4,27.3-4.4c1.3-1.8,2.3-3.8,2.9-5.9c-1.3,10.7-11.1,18.3-21.8,17
			c-10.7-1.3-18.3-11.1-17-21.8c0.1-1.1,0.4-2.1,0.7-3.1C183,194.1,186,201.2,191.8,205.3z"/>
		<circle class="st3" cx="224.7" cy="218.2" r="14.3"/>
		<ellipse class="st3" cx="236.7" cy="212.8" rx="12.7" ry="9.9"/>
		<ellipse class="st1" cx="240.1" cy="223" rx="2.4" ry="4.3"/>
	</g>
</g>
</svg>
