<?xml version="1.0" encoding="utf-8"?>
<!-- Generator: Adobe Illustrator 23.0.5, SVG Export Plug-In . SVG Version: 6.00 Build 0)  -->
<svg version="1.1" id="e4e5ac1e-f7c3-49db-bea6-73c2d2e1dfe0"
	 xmlns="http://www.w3.org/2000/svg" xmlns:xlink="http://www.w3.org/1999/xlink" x="0px" y="0px" viewBox="0 0 700 500"
	 style="enable-background:new 0 0 700 500;" xml:space="preserve">
<style type="text/css">
	.st0{fill:#FFB8B8;}
	.st1{fill:#2F2E41;}
	.st2{fill:#D0CDE1;}
	.st3{fill:#90CAF9;}
	.st4{fill:#3F3D56;}
	.st5{fill:#FFFFFF;}
	.st6{opacity:0.1;enable-background:new    ;}
	.st7{fill:#E6E8EC;}
	.st8{fill:#E6E6E6;}
</style>
<title>mobile_development</title>
<path class="st0" d="M96.6,327c0,0,9.3,14.7,6,18.7c-3.3,4,24.8,4.1,24.8,4.1s-4.2-21.4-3-26.3L96.6,327z"/>
<circle class="st1" cx="111.4" cy="303.2" r="29.1"/>
<polygon class="st0" points="179.8,460.7 179.8,478 197,474.4 195.5,462.2 "/>
<path class="st0" d="M240.8,463.6l48.1,7.9l-12.2,17.9c0,0-33.7-11.5-42.3-11.5C225.7,478,240.8,463.6,240.8,463.6z"/>
<path class="st2" d="M131.7,429.1c0,0,35.9-41.6,47.4-39.5s16.5,15.1,16.5,15.1l6.5,63.9c0,0-23,2.2-23,0s-4.3-48.1-4.3-48.1
	s-33.7,74.6-51.7,25.1L131.7,429.1z"/>
<path class="st2" d="M73.5,457.1c0,0,0.7,37.6,22.3,39.8c21.5,2.2,45.2-16.1,45.2-16.1l38.8-18.6c0,0,45.9,24.3,59.6,17.9
	c0,0,14.4-15.1,5-19.4c-9.3-4.3-0.7,0-0.7,0L188.4,432c0,0-10.8-2.9-29.4,5c-18.7,7.9-43.8,11.5-43.8,11.5L73.5,457.1z"/>
<circle class="st0" cx="109.4" cy="312.9" r="21.5"/>
<path class="st3" d="M140.3,373.2l-1.4,30.1c0,0,0.7,39.5-5.7,42.3c-3.3,1.4-9.8,4.4-15.9,7.6c-4.6,2.4-8.8,4.9-11.2,7.1
	c-0.6,0.5-1.2,1.2-1.6,1.9c-2.9,5-21.5,4.3-25.8,0.7c-4.3-3.6-1.4,4.3-5,5.7c-3.5,1.4-8.3-10-5.3-27c0.1-0.6,0.2-1.1,0.3-1.7
	c3.3-16.5-1.9-55.9-1.1-71.2c0-1.2,0.2-2.3,0.4-3.5c2.2-11.5,29.6-34.9,34.8-24.9c6.3,12.3,20.9,1.1,23.4-4.5
	c14.4-0.7,19.4,16.5,19.4,16.5L140.3,373.2z"/>
<path class="st1" d="M198.4,471.5c0,0-11.5,4.3-15.1,3.6s-7.2,2.2-7.2,6.5s-4.3,14.4,2.2,15.1s33-0.7,38.8,1.4c0,0,25.8,0.7,23.7-10
	c-2.2-10.8-12.9-10-12.9-10S198.4,476.5,198.4,471.5z"/>
<path class="st1" d="M282.4,473.6c0,0,1.4-4.3,3.6-4.3s19.4,2.9,21.5,2.2c2.2-0.7,27.3-2.2,23,10s-18.7,13.6-18.7,13.6
	s-25.8-2.9-29.4-2.2c-3.6,0.7-16.5,0-14.4-3.6S283.8,479.4,282.4,473.6z"/>
<path class="st4" d="M217.1,370.5l3.9,16.2c0,0.2,0,0.4,0,0.5l-17.9,55.8c-0.2,0.5-0.7,0.8-1.3,0.7c-0.4-0.1-0.7-0.5-0.7-0.9
	l-2.5-21.7c0-0.1,0-0.3,0-0.4l16.4-50.3c0.2-0.5,0.7-0.8,1.3-0.7C216.7,369.9,217,370.2,217.1,370.5z"/>
<polygon class="st5" points="215.6,371.9 219.3,385.9 203.5,436.8 199.9,421 "/>
<path class="st4" d="M136.2,447.7c0.6,1.8,63-0.6,63.6-1.2c0.5-0.8,1-1.6,1.3-2.4c0.6-1.2,1.1-2.4,1.1-2.4l-2.4-19.6l-61.8-2.2
	c0,0-1.5,16.6-1.9,24.2C136.1,445.2,136.1,446.5,136.2,447.7z"/>
<polygon class="st6" points="192,424.6 193.2,441.6 165.9,441.6 165.9,424.6 "/>
<polygon class="st6" points="156.8,430.1 157,430.1 156.2,437.4 141.1,437.4 141.1,430.1 "/>
<path class="st6" d="M136.2,447.7c0.6,1.8,63-0.6,63.6-1.2c0.5-0.8,1-1.6,1.3-2.4h-65C136.1,445.2,136.1,446.5,136.2,447.7z"/>
<circle class="st1" cx="116.2" cy="271.5" r="8.1"/>
<path class="st1" d="M113.8,280.3c0,0-8.3,13.8-27.5,18.9c-19.2,5.2-0.2,34.1-0.2,34.1s-6.9-10.5,3.1-21.6S115.3,292.9,113.8,280.3z
	"/>
<path class="st6" d="M117.2,453.2c-1.8,3.4-3.9,6.8-4.2,8.2c-0.2,1-2.9,0.4-7-1.2c-8.3-3.1-22.7-10.3-36.1-17.5
	c-0.6-0.3-1.2-0.7-1.8-1.1c0.1-0.6,0.2-1.1,0.3-1.7c3.3-16.5-1.9-55.9-1.1-71.2l6.1-2l12.2,11.5V427c0,0,31.6,17.2,33.7,18.7
	C120.6,446.4,119.1,449.7,117.2,453.2z"/>
<path class="st0" d="M143.9,414.1l19.4,10c0,0,11.5-12.2,18.7-2.9c7.2,9.3-20.8,12.2-20.8,12.2s-24.4-5.7-25.1-13.6
	S143.9,414.1,143.9,414.1z"/>
<path class="st0" d="M111.6,440.6l11.5,2.9c0,0,12.9-15.8,26.6-10c13.6,5.7-17.2,17.2-17.2,17.2s-16.5,8.6-23,1.4
	C103,444.9,111.6,440.6,111.6,440.6z"/>
<path class="st3" d="M136.7,345.9c0.7,0.7,8.6,6.5,8.6,6.5s2.2,27.3-0.7,33c-2.9,5.7-5,5.7-2.9,8.6c2.2,2.9,5,0.7,2.2,5.7
	c-2.9,5-5.7,4.3-3.6,6.5s1.4,2.9,1.4,2.9l8.6,7.2c0,0-5.3,8.4-12,7.8c-6.7-0.6-12.4-32.9-12.4-32.9L136.7,345.9z"/>
<path class="st3" d="M73.5,363.1l-6.5,2.2c0,0-17.2,63.2,2.9,73.9s42.3,21.5,43.1,18.7c0.7-2.9,8.6-14.4,6.5-15.8
	c-2.2-1.4-33.7-18.7-33.7-18.7v-48.8L73.5,363.1z"/>
<polygon class="st6" points="83.2,389.3 81.8,423.8 119.8,441.7 84.7,423.8 "/>
<path class="st4" d="M636.8,115.7V172c0,1.1-0.9,2-2,2h-1.4v293.5c0,16.9-13.7,30.6-30.6,30.6H419.5c-16.9,0-30.6-13.7-30.6-30.6
	c0,0,0,0,0,0V184.3h-1c-0.8,0-1.4-0.6-1.4-1.4v-32.1c0-0.8,0.6-1.4,1.4-1.4c0,0,0,0,0,0h1v-12.1h-1c-0.8,0-1.5-0.7-1.4-1.5v-31.6
	c0-0.8,0.6-1.4,1.4-1.4h1V86.4h-1c-0.7,0-1.3-0.6-1.3-1.3c0,0,0,0,0,0V67.8c0-0.7,0.6-1.3,1.3-1.3h1V31.6
	c0-16.9,13.7-30.6,30.6-30.6h183.4c16.9,0,30.6,13.7,30.6,30.6v82.1h1.4C635.9,113.7,636.8,114.6,636.8,115.7z"/>
<path class="st7" d="M490.2,16.7H520c1.2,0,2.2,1,2.2,2.2v2.6c0,1.2-1,2.2-2.2,2.2h-29.8c-1.2,0-2.2-1-2.2-2.2v-2.6
	C488,17.6,489,16.7,490.2,16.7z"/>
<circle class="st7" cx="531.3" cy="20.1" r="3.9"/>
<path class="st5" d="M618.8,37.6V470c0,10.7-8.7,19.4-19.4,19.4H423.8c-10.7,0-19.4-8.6-19.4-19.4c0,0,0,0,0-0.1V37.6
	c0-10.7,8.7-19.4,19.4-19.4c0,0,0,0,0,0h26.3v3.4c0,8.8,7.2,16,16,16h89.3c8.8,0,16-7.2,16-16v-3.4h28
	C610.1,18.2,618.8,26.9,618.8,37.6C618.8,37.6,618.8,37.6,618.8,37.6z"/>
<rect x="422.8" y="302.8" class="st8" width="178.4" height="23.2"/>
<rect x="422.8" y="344" class="st8" width="178.4" height="23.2"/>
<rect x="422.8" y="385.2" class="st8" width="178.4" height="23.2"/>
<circle class="st3" cx="581.4" cy="79" r="17.2"/>
<rect x="422.4" y="136.4" class="st8" width="178.4" height="118.4"/>
<path class="st4" d="M493.4,203c5.2,19.3,23.1,31.2,23.1,31.2s9.4-19.3,4.2-38.5s-23.1-31.2-23.1-31.2S488.2,183.7,493.4,203z"/>
<path class="st3" d="M501.1,198.9c14.3,13.9,16,35.3,16,35.3s-21.4-1.2-35.7-15.1c-14.3-13.9-16-35.3-16-35.3
	S486.8,184.9,501.1,198.9z"/>
<path class="st4" d="M540.8,203c-5.2,19.3-23.1,31.2-23.1,31.2s-9.4-19.3-4.2-38.5s23.1-31.2,23.1-31.2S546,183.7,540.8,203z"/>
<path class="st3" d="M533.2,198.9c-14.3,13.9-16,35.3-16,35.3s21.4-1.2,35.7-15.1c14.3-13.9,16-35.3,16-35.3
	S547.5,184.9,533.2,198.9z"/>
<rect x="-30.8" y="497.1" class="st4" width="761.6" height="1.9"/>
</svg>
