<?xml version="1.0" encoding="utf-8"?>
<!-- Generator: Adobe Illustrator 23.0.5, SVG Export Plug-In . SVG Version: 6.00 Build 0)  -->
<svg version="1.1" id="ac21ac2c-fe4f-4034-a272-ff155c287926"
	 xmlns="http://www.w3.org/2000/svg" xmlns:xlink="http://www.w3.org/1999/xlink" x="0px" y="0px" viewBox="0 0 700 500"
	 style="enable-background:new 0 0 700 500;" xml:space="preserve">
<style type="text/css">
	.st0{fill:#E6E6E6;}
	.st1{fill:#2F2E41;}
	.st2{fill:#9F616A;}
	.st3{fill:#3F3D56;}
	.st4{opacity:0.2;enable-background:new    ;}
	.st5{fill:#FFFFFF;}
	.st6{fill:#90CAF9;}
</style>
<title>download_files</title>
<path class="st0" d="M57.3,361.4l-5.2-20.7c-9.3-3.9-18.8-7.4-28.5-10.2l-0.7,9.6l-2.7-10.6c-12-3.4-20.2-4.9-20.2-4.9
	s11,42,34.2,74.1l27,4.7l-21,3c2.9,3.5,6,6.8,9.4,9.9c33.7,31.3,71.2,45.6,83.8,32.1c12.6-13.6-4.5-49.9-38.2-81.2
	c-10.4-9.7-23.6-17.5-36.7-23.6L57.3,361.4z"/>
<path class="st0" d="M107.2,339l6.2-20.4c-5.9-8.2-12.3-16-19.1-23.5l-5.5,7.9l3.2-10.5c-8.5-9.1-14.7-14.7-14.7-14.7
	s-12.3,41.7-9,81.1l20.7,18l-19.5-8.3c0.7,4.5,1.6,9,2.9,13.4c12.7,44.2,37.4,75.9,55.2,70.8s22-45.1,9.3-89.3
	c-3.9-13.7-11.1-27.1-19.2-39.2L107.2,339z"/>
<ellipse class="st0" cx="350" cy="459.8" rx="350" ry="19.2"/>
<path class="st1" d="M211.1,331.3c0,0,92.9-41.1,102.5-11.9c9.5,29.2-61.4,78-61.4,78l-29.8-8.3l40.5-29.8c0,0-55.4,39.3-83.4,30.4
	s-41.1-34-41.1-34L211.1,331.3z"/>
<path class="st1" d="M252.8,393.3l-12.5,22c0,0,4.2,26.2,16.7,29.2s20.9,11.3,10.7,13.1s-35.7,3.6-39.9-5.4
	c-4.2-8.9-14.3-25-14.3-25l2.4,21.4l-11.9,0.6l-1.8-24.4c-1.6-5.3-0.5-11.1,3-15.5c6-7.7,23.3-22.9,23.3-22.9L252.8,393.3z"/>
<path class="st0" d="M120,375.3c-1.1,0-2,0.8-2,1.9v75.4c0,1.1,0.9,2,2,1.9h92.7c1.1,0,2-0.8,2-1.9v-75.4c0-1.1-0.9-2-2-1.9H120z"/>
<polygon class="st1" points="235.8,210.1 176.8,215.4 158.9,166.5 210.4,154.1 "/>
<path class="st1" d="M166.4,348.6c0,0,93.5-3,78.6,32.8c-14.9,35.7-66.7,36.3-66.7,36.3l-11.9,8.3c0,0-16.1-9.5-15.5-25l19.7-8.3
	c0,0-44.7,24.4-50-9.5C115.2,349.2,166.4,348.6,166.4,348.6z"/>
<path class="st1" d="M156.3,401.6c0,0-43.2,1.5-40.2,15.2s-2.7,37.8-2.7,37.8l10.1,3.6l3-20.9c0,0,2.4,31.6,15.5,32.2
	c13.1,0.6,40.5,6,39.9,0s-21.4-17.9-21.4-17.9l-1.2-20.9l7.1-8.9L156.3,401.6z"/>
<circle class="st2" cx="189.1" cy="181.2" r="27.4"/>
<path class="st2" d="M166.4,186c0,0-0.6,24.4-15.5,27.4s-11.6,17-11.6,17l25.3,32.5l31.6-34.6l3-12.5c0,0-13.1,5.4-10.1-2.4
	c1.7-4.5,3.1-9,4.2-13.7L166.4,186z"/>
<path class="st3" d="M165,226.9c-1.4-3.3-4.1-8.1-9-15c0,0-48,8-42,49.7s7.7,71.5,7.7,71.5s0,0.1-0.1,0.2c-4.6,13.2-7,29.4-3.8,43
	c1.9,7.9,3.3,11,3.3,11s-1.2-32.2,50-36.9s47.4-25.9,47.4-25.9l-8.3-103.1c-0.2-3.7,1.3-8.9-2.4-8.9c-7.8-0.1-14.8-1.1-18.8,0.9
	c-4.5,2.2,0.1,14.2-8.9,19c-5.4,2.8-12,0.6-14.8-4.8C165.2,227.4,165.1,227.1,165,226.9z"/>
<path class="st1" d="M209.3,146.8c0,0,12.3,4.1,13.1,20.3c0.1,2.7-0.2,5.5-0.9,8.1c-0.7,3-1.2,9.5,4.4,18c3.6,5.5,7,11.2,9.9,17.1
	l0,0l-13.7,1.7l-2.9-22.8c-1.4-11-4.4-21.8-9-31.9l-0.1-0.2c0,0-6,11.2-18,11.2l4.3-4.3c0,0-14.9,6.1-23,7.4c-2.8,0.5-4.7,3.1-4.2,6
	c0.2,1,0.7,2,1.4,2.7c0,0.1,0.1,0.1,0.2,0.2c5.1,5.1,15.4,17.2,9.4,26.6c-6,9.4-0.9,12-0.9,12l-9.4-5.1l-4.3-2.6v3.4l-22.3-2.6
	c0,0-6-0.9,6.9-15.4c0,0,3.4-5.7,1.9-10.5c-1.2-3.7-1.5-7.7-0.9-11.5C153.9,158.4,165.3,126.4,209.3,146.8z"/>
<polygon class="st4" points="132.2,308 125,326.3 134,311.6 "/>
<path class="st2" d="M120,283.1l31,63.1l73.3,10.1c0,0,26.2,43.5,32.2,34.6s-22.6-46.5-22.6-46.5l-70.3-20.9l-22-45.9L120,283.1z"/>
<path class="st2" d="M209.2,253.1l31,63.1l73.3,10.1c0,0,44.6,14.6,50.5,5.6s-41-17.5-41-17.5l-70.3-20.9l-22-45.9L209.2,253.1z"/>
<path class="st3" d="M133.4,221.4c0,0-14.9,4.2-18.5,17.9s10.1,87,10.1,87s15.2-43.8,23.5-40.8C148.5,285.5,149.4,228,133.4,221.4z"
	/>
<path class="st3" d="M197.4,214.6c0,0,8.3-6.6,15.5,2.4c7.1,8.9,39,61.7,39,61.7s-46.8-4.5-46.8-1.5L197.4,214.6z"/>
<path class="st0" d="M445,21c-3,0-5.4,2.4-5.4,5.4v213.3c0,3,2.4,5.4,5.4,5.4h249.1c3,0,5.4-2.4,5.4-5.4V26.5c0-3-2.4-5.4-5.4-5.4
	L445,21z"/>
<path class="st5" d="M479.6,149.4c-1.3,0.3-2.1,1.5-1.9,2.8c0.2,0.9,0.9,1.7,1.9,1.9h182.3c1.3-0.3,2.1-1.5,1.9-2.8
	c-0.2-0.9-0.9-1.7-1.9-1.9H479.6z"/>
<path class="st5" d="M477.3,177.2c-1.3,0.3-2.1,1.5-1.9,2.8c0.2,0.9,0.9,1.7,1.9,1.9h182.3c1.3-0.3,2.1-1.5,1.9-2.8
	c-0.2-0.9-0.9-1.7-1.9-1.9H477.3z"/>
<path class="st5" d="M479.6,205.1c-1.3,0.3-2.1,1.5-1.9,2.8c0.2,0.9,0.9,1.7,1.9,1.9h182.3c1.3-0.3,2.1-1.5,1.9-2.8
	c-0.2-0.9-0.9-1.7-1.9-1.9H479.6z"/>
<path class="st5" d="M479.6,56.4c-1.3,0.3-2.1,1.5-1.9,2.8c0.2,0.9,0.9,1.7,1.9,1.9h182.3c1.3-0.3,2.1-1.5,1.9-2.8
	c-0.2-0.9-0.9-1.7-1.9-1.9H479.6z"/>
<path class="st5" d="M477.3,84.3c-1.3,0.3-2.1,1.5-1.9,2.8c0.2,0.9,0.9,1.7,1.9,1.9h182.3c1.3-0.3,2.1-1.5,1.9-2.8
	c-0.2-0.9-0.9-1.7-1.9-1.9H477.3z"/>
<path class="st5" d="M479.6,112.1c-1.3,0.3-2.1,1.5-1.9,2.8c0.2,0.9,0.9,1.7,1.9,1.9h182.3c1.3-0.3,2.1-1.5,1.9-2.8
	c-0.2-0.9-0.9-1.7-1.9-1.9H479.6z"/>
<path class="st6" d="M333.7,108.2c-3,0-5.4,2.4-5.4,5.4v213.3c0,3,2.4,5.4,5.4,5.4h249.1c3,0,5.4-2.4,5.4-5.4V113.7
	c0-3-2.4-5.4-5.4-5.4L333.7,108.2L333.7,108.2z"/>
<path class="st5" d="M368.2,236.6c-1.3,0.3-2.1,1.5-1.9,2.8c0.2,0.9,0.9,1.7,1.9,1.9h182.3c1.3-0.3,2.1-1.5,1.9-2.8
	c-0.2-0.9-0.9-1.7-1.9-1.9H368.2z"/>
<path class="st5" d="M366,264.5c-1.3,0.3-2.1,1.5-1.9,2.8c0.2,0.9,0.9,1.7,1.9,1.9h182.3c1.3-0.3,2.1-1.5,1.9-2.8
	c-0.2-0.9-0.9-1.7-1.9-1.9H366z"/>
<path class="st5" d="M368.2,292.3c-1.3,0.3-2.1,1.5-1.9,2.8c0.2,0.9,0.9,1.7,1.9,1.9h182.3c1.3-0.3,2.1-1.5,1.9-2.8
	c-0.2-0.9-0.9-1.7-1.9-1.9H368.2z"/>
<path class="st5" d="M368.2,143.6c-1.3,0.3-2.1,1.5-1.9,2.8c0.2,0.9,0.9,1.7,1.9,1.9h182.3c1.3-0.3,2.1-1.5,1.9-2.8
	c-0.2-0.9-0.9-1.7-1.9-1.9H368.2z"/>
<path class="st5" d="M366,171.5c-1.3,0.3-2.1,1.5-1.9,2.8c0.2,0.9,0.9,1.7,1.9,1.9h182.3c1.3-0.3,2.1-1.5,1.9-2.8
	c-0.2-0.9-0.9-1.7-1.9-1.9H366z"/>
<path class="st5" d="M368.2,199.3c-1.3,0.3-2.1,1.5-1.9,2.8c0.2,0.9,0.9,1.7,1.9,1.9h182.3c1.3-0.3,2.1-1.5,1.9-2.8
	c-0.2-0.9-0.9-1.7-1.9-1.9H368.2z"/>
<circle class="st3" cx="584.8" cy="104.7" r="63.6"/>
<polygon class="st5" points="593.1,106.9 593.1,74.5 576.4,74.5 576.4,106.9 568.6,106.9 576.7,120.9 584.8,134.9 592.8,120.9 
	600.9,106.9 "/>
</svg>
