<?xml version="1.0" encoding="utf-8"?>
<!-- Generator: Adobe Illustrator 23.0.5, SVG Export Plug-In . SVG Version: 6.00 Build 0)  -->
<svg version="1.1" id="cbb92aef-a4c8-4910-9d60-405154a20c92"
	 xmlns="http://www.w3.org/2000/svg" xmlns:xlink="http://www.w3.org/1999/xlink" x="0px" y="0px" viewBox="0 0 700 500"
	 style="enable-background:new 0 0 700 500;" xml:space="preserve">
<style type="text/css">
	.st0{opacity:0.1;fill:#90CAF9;enable-background:new    ;}
	.st1{fill:none;stroke:#535461;stroke-width:2;stroke-miterlimit:10;}
	.st2{fill:#90CAF9;}
	.st3{opacity:0.25;enable-background:new    ;}
	.st4{opacity:0.1;enable-background:new    ;}
	.st5{fill:#FFD037;}
	.st6{fill:#A8A8A8;}
	.st7{opacity:0.2;enable-background:new    ;}
	.st8{fill:url(#SVGID_1_);}
	.st9{fill:#FFFFFF;}
	.st10{fill:#5A5773;}
	.st11{opacity:0.2;fill:#5A5773;enable-background:new    ;}
	.st12{fill:url(#SVGID_2_);}
	.st13{fill:#EFB7B9;}
	.st14{fill:#FF6484;}
	.st15{fill:#444053;}
	.st16{fill:#A1616A;}
	.st17{fill:#925978;}
	.st18{opacity:0.1;}
</style>
<title>add to cart</title>
<path class="st0" d="M659.8,340c-0.6,0.4-1.1,0.8-1.7,1.2c-2.1,1.5-4.3,2.8-6.6,4c-12,6.3-26.8,9.4-41.2,11.5
	c-32.3,4.7-65.3,5.6-98.2,6.5c-88.8,2.4-177.8,4.9-266.4-0.7c-35-2.2-70.8-5.9-102.5-17.3c-4.5-1.6-9-3.4-13.4-5.4
	c-8.8-4-17.3-8.8-24.4-14.6c-6.6-5.4-12-11.6-15.2-18.7c-6.7-14.7-3.2-31.3,4.5-45.7c3.2-5.8,6.8-11.4,10.7-16.8
	c5.9-8.1,12.4-16,18.4-24.1c21.2-28.9,35-65.4,15.4-95c-5.6-8.5-13.7-16-18.3-24.9c-5.8-11.4-5.4-24-3.5-36.2
	c0.2-1.6,0.5-3.1,0.8-4.6c3.2-18.2,9.1-37.7,27.5-49.1c19.1-11.8,46.2-11.2,69.9-7c36.9,6.6,70.8,20.3,105.2,32.6
	s70.3,23.7,108.1,24.9c33.3,1.1,72.2-7,94.4-27.8c21.5-20.3,61.9-21.8,91-9.6c20,8.4,34.9,23.6,41.2,40.6c1.3,3.4,2.2,7,2.7,10.6
	c0.5,3.3,0.7,6.6,0.5,10c-0.1,1.6-0.3,3.3-0.5,4.9c-4.9,33.6-39.9,60.1-61.2,90.2c-10.4,14.7-17.7,32.3-10.6,48.1
	c10.9,24.1,48.8,32.7,71.8,50.6c4.3,3.3,8.1,7.2,11.3,11.6C680.5,305.7,676.4,327.2,659.8,340z"/>
<g id="d00831fc-a64a-413c-b5dd-d7bd6eafa01d">
	<path class="st1" d="M175,189.5c0,0-26.8-47.6-67.3-61.3c-17-5.8-31.8-16.6-41.9-31.3c-4.8-7-8.9-14.5-12.4-22.2"/>
	<path class="st2" d="M28,65.9C32.6,70.3,54,75,54,75s-5.3-21.3-9.9-25.8c-4.7-4.4-12-4.2-16.4,0.4C23.4,54.2,23.5,61.4,28,65.9
		L28,65.9z"/>
	<path class="st2" d="M40.1,104.4c6.3,1.2,26.8-6.5,26.8-6.5s-16-15-22.3-16.3c-6.3-1.1-12.4,3.1-13.5,9.4
		C30.1,97.2,34,103.1,40.1,104.4L40.1,104.4z"/>
	<path class="st2" d="M84.3,146.2c6.1-2.1,19.8-19.2,19.8-19.2s-21.4-4.9-27.5-2.8c-6.1,1.9-9.6,8.4-7.7,14.6
		c1.9,6.1,8.4,9.6,14.6,7.7C83.8,146.3,84,146.2,84.3,146.2L84.3,146.2z"/>
	<path class="st2" d="M124.9,170.2c6.3-1.1,22.8-15.5,22.8-15.5s-20.3-8.4-26.6-7.4c-6.3,1-10.6,7-9.6,13.4
		C112.5,166.9,118.5,171.2,124.9,170.2L124.9,170.2z"/>
	<path class="st2" d="M84.8,81.2c0,6.4-11.6,25-11.6,25s-11.6-18.6-11.6-25c-0.1-6.4,4.9-11.7,11.4-11.9s11.7,4.9,11.9,11.4
		C84.8,80.9,84.8,81.1,84.8,81.2L84.8,81.2z"/>
	<path class="st2" d="M131.9,110c-1.9,6.1-18.6,20.4-18.6,20.4s-5.5-21.3-3.6-27.4c2.2-6,8.8-9.2,14.9-7
		C130.2,98.1,133.4,104.1,131.9,110L131.9,110z"/>
	<path class="st2" d="M173.8,144.1c-0.9,6.4-14.9,23.3-14.9,23.3s-9-20-8.2-26.4c1-6.3,6.9-10.7,13.2-9.8
		C170.2,132.2,174.6,137.9,173.8,144.1L173.8,144.1z"/>
	<path class="st3" d="M28,65.9C32.6,70.3,54,75,54,75s-5.3-21.3-9.9-25.8c-4.7-4.4-12-4.2-16.4,0.4C23.4,54.2,23.5,61.4,28,65.9
		L28,65.9z"/>
	<path class="st3" d="M40.1,104.4c6.3,1.2,26.8-6.5,26.8-6.5s-16-15-22.3-16.3c-6.3-1.1-12.4,3.1-13.5,9.4
		C30.1,97.2,34,103.1,40.1,104.4L40.1,104.4z"/>
	<path class="st3" d="M84.3,146.2c6.1-2.1,19.8-19.2,19.8-19.2s-21.4-4.9-27.5-2.8c-6.1,1.9-9.6,8.4-7.7,14.6
		c1.9,6.1,8.4,9.6,14.6,7.7C83.8,146.3,84,146.2,84.3,146.2L84.3,146.2z"/>
	<path class="st3" d="M124.9,170.2c6.3-1.1,22.8-15.5,22.8-15.5s-20.3-8.4-26.6-7.4c-6.3,1-10.6,7-9.6,13.4
		C112.5,166.9,118.5,171.2,124.9,170.2L124.9,170.2z"/>
	<path class="st3" d="M84.8,81.2c0,6.4-11.6,25-11.6,25s-11.6-18.6-11.6-25c-0.1-6.4,4.9-11.7,11.4-11.9s11.7,4.9,11.9,11.4
		C84.8,80.9,84.8,81.1,84.8,81.2L84.8,81.2z"/>
	<path class="st3" d="M131.9,110c-1.9,6.1-18.6,20.4-18.6,20.4s-5.5-21.3-3.6-27.4c2.2-6,8.8-9.2,14.9-7
		C130.2,98.1,133.4,104.1,131.9,110L131.9,110z"/>
	<path class="st3" d="M173.8,144.1c-0.9,6.4-14.9,23.3-14.9,23.3s-9-20-8.2-26.4c1-6.3,6.9-10.7,13.2-9.8
		C170.2,132.2,174.6,137.9,173.8,144.1L173.8,144.1z"/>
	<path class="st1" d="M173.4,188.6c0,0-5.3-54.4-36.7-83.3c-13.2-12.1-22.3-28-25.6-45.6c-1.5-8.4-2.3-16.8-2.3-25.3"/>
	<path class="st2" d="M89.1,16c2.4,6,20.1,18.9,20.1,18.9s3.8-21.6,1.4-27.6c-2.4-6-9.2-8.8-15.1-6.4S86.7,10,89.1,16L89.1,16z"/>
	<path class="st2" d="M84.6,56.1c5.3,3.7,27.2,4.9,27.2,4.9S103.3,40.8,98,37.1c-5.2-3.7-12.5-2.5-16.2,2.8S79.3,52.4,84.6,56.1z"/>
	<path class="st2" d="M108.1,112.2c6.4,0.5,25.9-9.5,25.9-9.5s-17.6-13.1-24-13.7C103.7,88.3,98,93,97.3,99.4
		c-0.7,6.4,3.9,12.1,10.3,12.8C107.8,112.2,107.9,112.2,108.1,112.2L108.1,112.2z"/>
	<path class="st2" d="M135.4,150.6c6.2,1.6,27.2-5,27.2-5s-15.1-15.9-21.3-17.5c-6.2-1.5-12.5,2.3-14,8.6
		C125.8,142.8,129.4,148.9,135.4,150.6L135.4,150.6z"/>
	<path class="st2" d="M134.9,53.1c-2.6,5.9-20.8,18.2-20.8,18.2s-3.1-21.7-0.5-27.6c2.5-5.9,9.3-8.7,15.2-6.2s8.7,9.3,6.2,15.2
		C135,52.8,134.9,53,134.9,53.1z"/>
	<path class="st2" d="M166.3,98.4c-4.2,4.8-25.3,11.1-25.3,11.1s3.5-21.7,7.8-26.5c4.2-4.8,11.6-5.3,16.4-1.1S170.5,93.6,166.3,98.4
		z"/>
	<path class="st2" d="M190.8,146.6c-3.4,5.5-23,15.2-23,15.2s-0.2-21.9,3.2-27.4c3.4-5.5,10.5-7.2,16-3.8
		C192.4,134,194.2,141.1,190.8,146.6L190.8,146.6z"/>
</g>
<ellipse class="st0" cx="262.6" cy="488.4" rx="65.1" ry="8.5"/>
<g>
	<ellipse class="st0" cx="131.1" cy="487.7" rx="19.8" ry="3.4"/>
	<path class="st2" d="M135.4,450.1c0,0,3.2,4.2-1.5,10.5c-4.7,6.3-8.5,11.7-7,15.6c0,0,7.1-11.8,12.8-11.9
		C145.6,464.1,141.8,457.1,135.4,450.1z"/>
	<path class="st4" d="M135.4,450.1c0.3,0.4,0.5,0.8,0.7,1.3c5.6,6.6,8.6,12.7,3.2,12.9c-5,0.1-11.1,9.1-12.5,11.4
		c0,0.2,0.1,0.3,0.2,0.5c0,0,7.1-11.8,12.8-11.9C145.6,464.1,141.8,457.1,135.4,450.1z"/>
	<path class="st5" d="M141.4,455.4c0,1.5-0.2,2.7-0.4,2.7s-0.4-1.2-0.4-2.7c0-1.5,0.2-0.8,0.4-0.8S141.4,453.9,141.4,455.4z"/>
	<path class="st5" d="M143.4,457.2c-1.3,0.7-2.4,1.1-2.5,1c-0.1-0.2,0.9-0.9,2.2-1.6c1.3-0.7,0.8-0.2,0.9,0
		C144.1,456.7,144.7,456.5,143.4,457.2z"/>
	<path class="st2" d="M118.5,450.1c0,0-3.2,4.2,1.5,10.5c4.7,6.3,8.5,11.7,7,15.6c0,0-7.1-11.8-12.8-11.9S112.2,457.1,118.5,450.1z"
		/>
	<path class="st4" d="M118.5,450.1c-0.3,0.4-0.5,0.8-0.7,1.3c-5.6,6.6-8.6,12.7-3.2,12.9c5,0.1,11.1,9.1,12.5,11.4
		c0,0.2-0.1,0.4-0.2,0.5c0,0-7.1-11.8-12.8-11.9C108.4,464.1,112.2,457.1,118.5,450.1z"/>
	<path class="st5" d="M112.5,455.4c0,1.5,0.2,2.7,0.4,2.7s0.4-1.2,0.4-2.7c0-1.5-0.2-0.8-0.4-0.8
		C112.7,454.6,112.5,453.9,112.5,455.4z"/>
	<path class="st5" d="M110.5,457.2c1.3,0.7,2.4,1.1,2.5,1c0.1-0.2-0.9-0.9-2.2-1.6s-0.8-0.2-0.9,0
		C109.9,456.7,109.2,456.5,110.5,457.2z"/>
	<path class="st6" d="M113.6,475.6c0,0,9-0.3,11.7-2.2c2.7-1.9,13.8-4.2,14.4-1.1c0.7,3.1,13.5,15.3,3.3,15.4s-23.5-1.6-26.2-3.2
		C114.1,482.9,113.6,475.6,113.6,475.6z"/>
	<path class="st7" d="M143.2,486.6c-10.1,0.1-23.5-1.6-26.2-3.2c-2.1-1.3-2.9-5.7-3.1-7.8h-0.3c0,0,0.6,7.2,3.3,8.9
		s16.1,3.3,26.2,3.2c2.9,0,3.9-1.1,3.9-2.6C146.5,486.1,145.4,486.6,143.2,486.6z"/>
	<path class="st2" d="M412.8,475.3c0,0-24.7-1.5-21.8,15.8c0,0-0.6,3.1,2.2,4.4c0,0,0-1.3,2.5-0.8c0.9,0.1,1.8,0.2,2.7,0.1
		c1.2-0.1,2.4-0.6,3.3-1.4l0,0c0,0,6.9-2.9,9.6-14.2c0,0,2-2.5,1.9-3.1l-4.2,1.8c0,0,1.4,3,0.3,5.5c0,0-0.1-5.4-0.9-5.3
		c-0.2,0-2.2,1-2.2,1s2.5,5.3,0.6,9c0,0,0.7-6.4-1.4-8.7l-2.9,1.7c0,0,2.9,5.4,0.9,9.8c0,0,0.5-6.8-1.5-9.4l-2.7,2.1
		c0,0,2.7,5.3,1,9c0,0-0.2-7.9-1.6-8.5c0,0-2.3,2-2.7,2.9c0,0,1.8,3.9,0.7,5.9c0,0-0.7-5.3-1.3-5.3c0,0-2.3,3.5-2.6,5.8
		c0,0,0.1-3.5,2-6.2c-1.3,0.3-2.6,0.9-3.5,1.8c0,0,0.4-2.5,4.1-2.7c0,0,1.9-2.6,2.4-2.8c0,0-3.7-0.3-6,0.7c0,0,2-2.3,6.7-1.3
		l2.6-2.1c0,0-4.9-0.7-7,0.1c0,0,2.4-2.1,7.7-0.6l2.9-1.7c0,0-4.2-0.9-6.7-0.6c0,0,2.6-1.4,7.5,0.1l2-0.9c0,0-3.1-0.6-4-0.7
		c-0.9-0.1-0.9-0.3-0.9-0.3c1.9-0.3,3.9-0.1,5.8,0.6C408.5,477.2,412.9,475.6,412.8,475.3z"/>
	<ellipse class="st0" cx="395.8" cy="497" rx="17.5" ry="3"/>
	<path class="st2" d="M369.6,476.2c0,0-13.9-0.8-12.3,8.9c-0.2,1,0.3,2,1.2,2.5c0,0,0-0.7,1.4-0.5c0.5,0.1,1,0.1,1.5,0.1
		c0.7,0,1.3-0.3,1.8-0.8l0,0c0,0,3.9-1.6,5.4-8c0,0,1.1-1.4,1.1-1.8l-2.3,1c0,0,0.8,1.7,0.2,3.1c0,0-0.1-3-0.5-3
		c-0.1,0-1.2,0.6-1.2,0.6s1.4,2.9,0.3,5.1c0,0,0.4-3.6-0.8-4.9l-1.7,1c0,0,1.6,3,0.5,5.5c0,0,0.3-3.8-0.9-5.3L362,481
		c0,0,1.5,3,0.6,5.1c0,0-0.1-4.4-0.9-4.8c-0.6,0.5-1.1,1-1.5,1.6c0,0,1,2.2,0.4,3.3c0,0-0.4-3-0.7-3c0,0-1.3,2-1.4,3.3
		c0.1-1.2,0.4-2.5,1.1-3.5c-0.8,0.1-1.4,0.5-2,1c0,0,0.2-1.4,2.3-1.5c0,0,1.1-1.5,1.4-1.6c0,0-2.1-0.2-3.4,0.4c0,0,1.1-1.3,3.8-0.7
		l1.5-1.2c0,0-2.8-0.4-3.9,0c0,0,1.4-1.2,4.3-0.3l1.6-1c-1.2-0.3-2.5-0.4-3.8-0.3c0,0,1.5-0.8,4.2,0.1l1.2-0.5c0,0-1.8-0.3-2.2-0.4
		c-0.5-0.1-0.5-0.2-0.5-0.2c1.1-0.2,2.2-0.1,3.3,0.4C367.2,477.3,369.6,476.4,369.6,476.2z"/>
	<ellipse class="st0" cx="360" cy="488.5" rx="9.8" ry="1.7"/>
	<path class="st2" d="M396.1,455.6c0,0-16.8-1-14.8,10.8c-0.2,1.2,0.4,2.4,1.5,3c0,0,0-0.9,1.7-0.6c0.6,0.1,1.2,0.1,1.8,0.1
		c0.8-0.1,1.6-0.4,2.2-0.9l0,0c0,0,4.7-1.9,6.6-9.7c0,0,1.4-1.7,1.3-2.1l-2.8,1.2c0,0,1,2,0.2,3.7c0,0-0.1-3.7-0.6-3.6
		c-0.1,0-1.5,0.7-1.5,0.7s1.7,3.6,0.4,6.1c0,0,0.5-4.4-0.9-5.9l-2,1.2c0,0,1.9,3.7,0.6,6.7c0,0,0.3-4.6-1.1-6.4l-1.8,1.4
		c0,0,1.8,3.6,0.7,6.1c0,0-0.1-5.4-1.1-5.8c0,0-1.6,1.4-1.8,2c0,0,1.3,2.6,0.5,4c0,0-0.5-3.6-0.9-3.6c0,0-1.6,2.3-1.8,4
		c0.1-1.5,0.5-3,1.4-4.2c-0.9,0.2-1.7,0.6-2.4,1.2c0,0,0.2-1.7,2.8-1.8c0,0,1.3-1.8,1.7-1.9c0,0-2.5-0.2-4.1,0.5
		c0,0,1.4-1.6,4.6-0.9l1.8-1.5c0,0-3.3-0.5-4.8,0c0,0,1.6-1.4,5.3-0.4l1.9-1.2c0,0-2.9-0.6-4.6-0.4c0,0,1.8-1,5.1,0.1l1.4-0.6
		c0,0-2.1-0.4-2.7-0.5c-0.6-0.1-0.6-0.2-0.6-0.2c1.3-0.2,2.7-0.1,3.9,0.4C393.2,456.8,396.1,455.7,396.1,455.6z"/>
	<ellipse class="st0" cx="384.5" cy="470.4" rx="11.9" ry="2"/>
</g>
<g>
	
		<linearGradient id="SVGID_1_" gradientUnits="userSpaceOnUse" x1="423.6206" y1="134.2358" x2="423.6206" y2="423.7239" gradientTransform="matrix(1 0 0 -1 -41.9 479.46)">
		<stop  offset="0" style="stop-color:#808080;stop-opacity:0.25"/>
		<stop  offset="0.54" style="stop-color:#808080;stop-opacity:0.12"/>
		<stop  offset="1" style="stop-color:#808080;stop-opacity:0.1"/>
	</linearGradient>
	<path class="st8" d="M659.2,341.1V55.7h-555v269c7.1,5.9,15.6,10.9,24.5,15c4.4,2,8.9,3.9,13.4,5.5h510.4L659.2,341.1z"/>
	<path class="st9" d="M658.1,341.2V63.9H105.4v261.4c7.1,5.8,15.5,10.6,24.4,14.6c4.4,1.9,8.8,3.7,13.4,5.4h508.3L658.1,341.2z"/>
	<rect x="105.4" y="56.5" class="st10" width="552.7" height="14.7"/>
</g>
<g>
	<circle class="st9" cx="116.5" cy="63.9" r="3.8"/>
	<circle class="st9" cx="126.7" cy="63.9" r="3.8"/>
	<circle class="st9" cx="136.9" cy="63.9" r="3.8"/>
</g>
<g>
	<rect x="246.7" y="103.4" class="st2" width="91.3" height="57.4"/>
	<rect x="120.3" y="103.4" class="st11" width="91.3" height="57.4"/>
	<rect x="373.1" y="103.4" class="st11" width="91.3" height="57.4"/>
	<rect x="120.3" y="185.5" class="st11" width="91.3" height="57.4"/>
	<rect x="246.7" y="185.5" class="st11" width="91.3" height="57.4"/>
	<rect x="373.1" y="185.5" class="st11" width="91.3" height="57.4"/>
	<rect x="120.3" y="267.5" class="st11" width="91.3" height="57.4"/>
	<rect x="246.7" y="267.5" class="st11" width="91.3" height="57.4"/>
	<rect x="373.1" y="267.5" class="st11" width="91.3" height="57.4"/>
</g>
<g>
	
		<linearGradient id="SVGID_2_" gradientUnits="userSpaceOnUse" x1="319.3734" y1="-10.7183" x2="319.3734" y2="361.6904" gradientTransform="matrix(1 0 0 -1 -41.9 479.46)">
		<stop  offset="0" style="stop-color:#808080;stop-opacity:0.25"/>
		<stop  offset="0.54" style="stop-color:#808080;stop-opacity:0.12"/>
		<stop  offset="1" style="stop-color:#808080;stop-opacity:0.1"/>
	</linearGradient>
	<path class="st12" d="M321.7,247.2c0,0-16.4-30-13.6-34.9c2.8-4.9,4.8-11.9,4.8-11.9s6.1-4.1,6.1-5.8c0-1.7,4.8-5.6,7.3-7.3
		s1.3-9.7,0-10.7c-1.3-1-3.3-4.4-3.3-4.4s1.8-4.9,0-6.3c-1.8-1.5,0.3-2.9,0-4.4c-0.3-1.5,0-6.8,0-6.8c-2-2.8-4.3-4.2-6.5-4.7
		l-0.2-0.8l-1.1-4.5c0,0,5.3-10.1-3.3-15.3c-0.6-0.4-1.2-0.7-1.9-1c0,0,0-0.2,0-0.7c-0.1-1.5-0.5-5.3-1.2-7.7
		c-0.4-1.4-1-2.4-1.8-2.1c-0.2,0.1-0.3,0.1-0.5,0.3c-0.3,0.3-0.7,0.7-0.9,1.1l0,0c0,0,0,0,0,0.1l0,0c-1,1.7-1.6,3.6-2,5.6
		c-0.3,1.2-0.5,2.3-0.6,3.5l0,0c-0.4,0.7-0.7,1.4-1,2.2c-1,2.7-2.2,7.3,0,10.7c1.9,2.9,4.4,6.9,6.2,9.8l0.1,0.1l0.1,0.2l-0.2,0.1
		v0.4l0.2,2.5l1.4,21.2c-0.4-0.1-0.9-0.2-1.3-0.3c-0.6-0.1-1.3-0.1-1.9-0.1c-1.2-4.8-4.6-9.3-5.3-14.4c-0.1-0.5-0.1-1-0.1-1.5
		c0.1-3.2,0.8-6.4,0.8-9.5c0-0.6,0-1.2-0.1-1.8l0,0c0-0.2,0-0.3,0-0.5c-0.6-4.7-3.6-8.8-7.8-10.9c-1.5-0.7-3.1-1.2-4.5-2
		c-3.3-1.8-5.4-5.2-8.4-7.4c-2.2-1.7-5.5-2.6-8-1.8c-1.3,0.2-2.6,0.5-3.9,0.8l0,0c-3.1,0.8-6.1,2.1-8.9,3.7
		c-0.4,0.2-0.8,0.5-1.1,0.7c-0.8,0.5-1.4,1.2-1.8,2.1c-0.3,0.7-0.3,1.5-0.3,2.3c0,0.6,0,1.1,0,1.7c-0.2,9.3-10.2,16.6-11,25.7
		c0,0.2,0,0.4,0,0.6c0,0.1,0,0.1,0,0.2c0,0.3,0,0.5,0,0.8l0,0c0,0.1,0,0.2,0,0.4s0,0.2,0,0.4c0.1,4,2.2,7.7,2.6,11.7
		c0,0.4,0.1,0.7,0.1,1.1c-0.1,1.8-0.4,3.6-1,5.4c-1.3,0.3-2.5,0.8-3.6,1.5c-3.1,2-8.6,5.4-10.6,11.9c-0.5,1.7-0.8,3.4-0.8,5.2
		c0,6.2-0.6,12.4-1.7,18.6c-0.3,1.5-0.6,3.1-1.1,4.6c0,0.1-0.1,0.3,0,0.4l-1.2,15.8l-0.2,2.8l-0.3,3.9c0,0,0.1,0.2,0.2,0.6
		c0.2,0.6,0.3,1.2,0.5,1.8c0.3,1.3,0.4,2.7,0.2,4.1c-0.1,0.6-0.4,1.1-0.9,1.5c0,0-0.1,0.1-0.1,0.1c-0.3,0.5-0.7,1.9-0.9,4
		c-0.1,0.8-0.2,1.8-0.3,2.7c-0.6,6.2-0.9,15.5-1.2,23.2c-0.2,7.6-0.3,13.6-0.3,13.6c1,0.6,2,1.2,3.1,1.6c-0.1,0.2-0.2,0.4-0.3,0.6
		c-1,2.6-1.6,5.3-1.9,8c-0.5,5.7,1.1,12.1,9.1,15.4c0.5,0.2,1,0.4,1.6,0.5c1.8,0.5,3,0.3,4-0.2c0,0.3,0,0.7,0.1,1
		c0.1,1.4,0.2,2.7,0.2,3.8c0.3,6.8,1.9,18.8,1.9,18.8s0.6,4.9,0.1,6.3c-0.5,1.5,0,7.3,0,7.3s1.8,2.9,0,4.4s-2.3,8.8-1.8,9.7
		c0,0,0,0.1,0,0.1c0.4,2.4-1.8,38.4-1.8,38.4s-2.1,5.5-3.7,11.2c-1.6,5.6-2.8,11.3-1.3,12.4c0.7,0.5,2.4,0.9,4.6,1.2
		c0,0.2,0,0.5-0.1,0.7c-0.2,2.6-0.5,5.3-1,6c-0.7,1-1.4,8.7-1.8,12.8l0,0.5c-0.7,1.8-1.4,3.6-1.9,5.4c0,0-5.6,14-3.7,17.6
		c0.2,0.3,0.4,0.6,0.7,0.9l0,0c0.1,0.1,0.1,0.1,0.2,0.2c2.7,2.2,9.4,2.6,11.9,2.7l-0.1,3.5v0.1h3.2v-0.1c0-0.4,0.1-2.4,0.2-5.1
		c0-0.5,0-1,0.1-1.5c0-0.4,0-0.8,0.1-1.2c0.9-2.5,1.4-5.1,1.4-7.8c0-3.1,0.4-6.1,1.2-9c0.4-1.5,0.9-3,1.6-4.4c0,0,1-5.3-0.4-9
		c-0.3-0.7-0.7-1.4-1.2-2c0-0.1,0-0.2,0-0.4s0-0.3,0-0.4s0-0.2,0-0.4c0-2.5,0.2-5,0.7-7.5c0,0,0-0.1,0-0.1c0-0.2,0.1-0.4,0.2-0.6
		l0-0.1l1,0c3.2,0.1,5.5,0.1,5.5,0.1s2.5-12.9,2.3-18.5c0-0.2,0-0.5,0-0.8c-0.1-5.6,1.5-13.1,1.5-13.1l2-19.7c0,0-1-3.4,0-5.8
		c0.6-1.5,1.9-4.3,2.8-6.2c0.4-0.9,0.8-1.6,0.9-1.9l0.1-0.2c-0.3-0.1-0.6-0.3-0.9-0.4l0,0c-0.8-0.5-1.6-1.6,0.9-3.2
		c3.8-2.4,2.5-8.5,2.5-8.5s-1.1-2.2,0.2-4.1c1.3-1.9,0-9.3,0-9.3c1.1-1.9,1.9-4,2.6-6.1c0.9-2.9,3.3-17.2,4.4-24.1
		c0.4-2.3,0.6-3.7,0.6-3.7l0,0.4l0,0.4l0,0l0.3,3.2l0,0.4l0.6,6.1c0,0,1.2,16.1,0.4,22.5c0,0,0,0.1,0,0.1c-0.1,0.7-0.2,1.3-0.4,1.9
		c-1.3,3-1.1,15.1-1,17.8c0,0.2,0,0.4,0,0.5c0,0.1-1,2.4-0.7,4.1l0,0c0,0.4,0.2,0.9,0.5,1.2c0.3,0.6,0.5,1.2,0.4,1.9v0.1
		c0,0.3,0,0.6-0.1,0.8c-0.2,1.1-0.5,2.2-0.9,3.3c0,0-1.4,3.6-0.8,5.4l0,0c0.1,0.2,0.2,0.5,0.3,0.7c0.1,0.2,0.2,0.5,0.2,0.7
		c0,0,0,0,0,0.1c0.5,3.9-0.7,21.3-1.5,30.7c-0.3,3.7-0.5,6.3-0.5,6.3l-2,20.7l0.2,0.1c0.2,0.2,0.7,0.4,1.2,0.8c0,0,0,0,0,0l-0.1,0.6
		c-0.3,2-0.7,4.3-1.1,6.1c0,0.1-0.1,0.3-0.1,0.4c-0.8,0.1-1.5,0.4-2.1,0.9c-4.2,7.5-2.4,13.5,0,15.3c0.7,0.5,1.1,1.9,1.4,3.6
		l0.6,7.5c0,0.3,0,0.6,0,0.9c0,0.2,0,0.5,0.1,0.7l0.2,2.3l0.2,3.2h1.9v-3.8h0.1c3.1,0.1,8,0.2,10.1,0.1h0.1c0.2,0,0.4,0,0.6-0.1
		c0.1,0,0.2,0,0.3-0.1c1.1-0.5,4-8.6,1.4-10.4c-2.6-1.8-3.1-7-3.1-7c-0.2-0.7-0.4-1.3-0.7-1.9c0-0.1,0-0.3,0-0.4
		c-0.1-2.5,0-5.2,0.3-6.7c0.4-1.6,0.6-5,0.7-8c0-0.2,0-0.4,0-0.7v-0.1c0.4-0.1,0.9-0.3,1.3-0.4l0.1,0c0.8-0.3,1.5-0.8,2.2-1.3
		l7.1-31.6l0.8-3.7l4.3-20.9c0,0-1.5-7.3,0-8.5c0.6-0.4,0.7-2.3,0.7-4.5c-0.1-3.8-0.7-8.6-0.7-8.6s2-3.2,3-5.1s0-7.1,0-7.1l2-11.7
		c0,0,2.3-13.9,7.8-25.6c4.1-8.6,1.5-31.8-1.2-44.2c-0.1-0.3-0.1-0.6-0.2-0.9v0c1.2-0.6,2.8-1.4,4.4-2.1l0.6-0.3
		c2.1-1,4.3-2,6.2-2.8l0.1-0.1c1.4-0.6,2.9-1.2,4.3-1.6c0.4-0.1,0.9-0.2,1.3-0.3C332.3,265.7,321.7,247.2,321.7,247.2z M242.7,286.8
		h1.1c-0.1,0.2-0.2,0.5-0.4,0.7c-0.1,0.1-0.1,0.3-0.2,0.4c-0.4,0.8-0.7,1.6-1,2.4c0.1-0.9,0.3-1.8,0.4-2.8
		C242.6,287.3,242.7,287.1,242.7,286.8z M239.9,302C239.9,302,239.9,302,239.9,302l-0.1-0.4c-0.1-0.2-0.1-0.4-0.2-0.6
		c0.4-0.1,0.7-0.2,1.1-0.4h0.1c0,0.1,0,0.1,0,0.2c0,0.3-0.1,0.5-0.1,0.8l0,0c0,0,0,0.1,0,0.1c0,0.2-0.1,0.4-0.1,0.6
		c-0.1,0.4-0.1,0.8-0.2,1.2c-0.1-0.4-0.2-0.7-0.3-1.1C240,302.4,240,302.2,239.9,302L239.9,302z"/>
	<path class="st13" d="M315.6,153.7l-6.3,2.2l-2.3-3.8c-1.8-2.9-4.2-6.9-6-9.8c-3.2-5.1,1-12.9,1-12.9s0.7-7.8,3.4-10.2
		s3.4,10.2,3.4,10.2c10.7,4.9,5,16.3,5,16.3l1,4.5L315.6,153.7z"/>
	<path class="st4" d="M315.6,153.7l-6.3,2.2l-2.3-3.8v-0.3c0,0,3.6-2.5,7.8-1.5L315.6,153.7z"/>
	<path class="st14" d="M305.4,179.2l3.2-2.7l-1.6-24c0,0,8.2-5.6,14.2,3.2c0,0-0.2,5.3,0,6.8c0.2,1.5-1.7,2.9,0,4.4
		c1.7,1.5,0,6.3,0,6.3s1.9,3.4,3.1,4.4s2.4,9,0,10.7s-7,5.6-7,7.3s-5.8,5.8-5.8,5.8l-5.1-6.8L305.4,179.2z"/>
	<path class="st13" d="M237.2,325.2c-11.8-5-9.2-17.2-6.9-23.3c0.4-1.2,1-2.5,1.6-3.6l6.6-4c0,0,1.3,3.4,2.8,8
		C244.5,313,248.4,330,237.2,325.2z"/>
	<path class="st13" d="M253.4,436.5c-0.8,1.6-1.4,3.2-1.8,4.9c-0.6,2.7-0.8,5.6-0.8,8.4c0,1.9,0.2,3.2,0.2,3.2l-13.1,9
		c0,0,0.1-1.1,0.2-2.6c0.3-4.1,1-11.8,1.7-12.8c0.5-0.7,0.8-3.5,1-6c0.2-2.6,0.3-4.8,0.3-4.8S256.9,429.9,253.4,436.5z"/>
	<path class="st13" d="M284.3,443c0,0,0,2.5-0.1,5.4c-0.1,2.9-0.3,6.4-0.6,8c-0.3,1.5-0.4,4.2-0.3,6.7c0.1,2.9,0.3,5.5,0.3,5.5
		s-13.4-12.7-12-13.7c0.4-0.3,0.7-1.3,1.1-2.8c0.4-1.8,0.8-4.1,1.1-6.1c0.3-2.4,0.5-4.3,0.5-4.3L284.3,443z"/>
	<path class="st4" d="M253.4,436.5c-0.8,1.6-1.4,3.2-1.8,4.9c-3.6-0.1-7.2-0.4-10.7-0.8c0.2-2.5,0.3-4.8,0.3-4.8
		S256.9,429.9,253.4,436.5z"/>
	<path class="st4" d="M284.3,443c0,0,0,2.5-0.1,5.4c-4.2,1.1-8.5-1.1-10.5-2.3c0.3-2.4,0.5-4.3,0.5-4.3L284.3,443z"/>
	<path class="st15" d="M311.7,318.9c-5.3,11.7-7.5,25.5-7.5,25.5l-1.9,11.7c0,0,1,5.1,0,7c-1,1.9-2.9,5.1-2.9,5.1s1.5,11.9,0,13.1
		s0,8.5,0,8.5l-4.9,24.5l-6.8,31.6c-6.6,5.3-15.3-1.5-15.3-1.5l1.9-20.6c0,0,2.9-36.2,1.7-37.7s0.5-6.1,0.5-6.1s1.7-4.4,0.5-6.1
		s0.2-5.3,0.2-5.3s-0.5-14.8,1-18.2c1.5-3.4,0-24.4,0-24.4l-0.6-6.6l-0.3-3.6l0-0.4c0,0-0.2,1.5-0.6,3.7c-1.1,6.9-3.4,21.1-4.3,24
		c-0.6,2.1-1.4,4.1-2.5,6.1c0,0,1.3,7.3,0,9.2s-0.2,4.1-0.2,4.1s1.2,6.1-2.4,8.5c-3.6,2.4,0,3.6,0,3.6s-2.7,5.8-3.6,8.3
		c-1,2.4,0,5.8,0,5.8l-1.9,19.7c0,0-1.7,8.3-1.5,13.8s-2.2,18.5-2.2,18.5s-18.7,0-21.6-2.2c-2.9-2.2,4.8-23.5,4.8-23.5
		s2.2-37.4,1.7-38.4c-0.5-1,0-8.3,1.7-9.7s0-4.4,0-4.4s-0.5-5.8,0-7.3c0.5-1.5-0.1-6.3-0.1-6.3s-1.6-11.9-1.9-18.7
		s-1.5-22.1-1.5-22.1s1.3-9.5,1.5-14c0.1-1.7,0.8-3.7,1.8-5.7c1.1-2.2,2.3-4.3,3.6-6.3c0,0,57.5-17,60-15.3c0.6,0.4,1.6,3.5,2.5,7.9
		C313.2,287.2,315.7,310.3,311.7,318.9z"/>
	<circle class="st16" cx="276.3" cy="153.7" r="16.8"/>
	<path class="st4" d="M310.6,274.8c-1.9,1-3.2,1.7-3.2,1.7s-27.2,12.9-34.9,12.1c-6-0.6-21.3-0.3-27.9-0.1c1.1-2.2,2.3-4.3,3.6-6.3
		c0,0,57.6-17,60-15.3C308.8,267.4,309.7,270.4,310.6,274.8z"/>
	<path class="st14" d="M264.6,180.5c0,0-15.5,2.5-19.2,4.9c-3.7,2.4-10.9,7-10.9,17c0,10-1.7,20.2-2.7,23.1
		c-1,2.9,15.3,26.5,15.3,26.5l-5.8,35.7c0,0,23.3-0.7,31.1,0c7.8,0.7,35-12.1,35-12.1s16-8.5,19.4-8.8c3.4-0.3-6.8-18.7-6.8-18.7
		s-15.8-29.9-13.1-34.7s4.6-11.9,4.6-11.9l-2.9-24.8c0,0-4.4-1.5-8,1.2s-16,1.2-16,1.2L264.6,180.5z"/>
	<path class="st4" d="M238.3,223.7l-6.1,1.7l-1.7,22.9c0,0,2.2,6.1,0,8c-2.2,1.9-2.7,43.5-2.7,43.5s7,5.1,15.3,1.2
		c0,0-1.2-4.6,2.4-21.4c3.6-16.8,3.6-25.3,3.6-25.3s0-20.9,1.7-24.3s0-11.9,0-11.9s-3.4-4.6-3.2-6.3S238.3,223.7,238.3,223.7z"/>
	<path class="st4" d="M241.2,302.3c-3.6,1.2-7.5,1.1-10.9-0.4c0.4-1.2,1-2.5,1.6-3.6l6.6-4C238.4,294.3,239.8,297.7,241.2,302.3z"/>
	<path class="st14" d="M237.9,223.7l-6.1,1.7l-1.7,22.9c0,0,2.2,6.1,0,8s-2.7,43.5-2.7,43.5s7.1,5.1,15.3,1.2c0,0-1.2-4.6,2.4-21.4
		c3.6-16.8,3.6-25.3,3.6-25.3s0-20.9,1.7-24.3c1.7-3.4,0-11.9,0-11.9s-3.4-4.6-3.2-6.3C247.6,210.1,237.9,223.7,237.9,223.7z"/>
	<path class="st4" d="M300.1,227.3c0,0-3.2,27.2-12.4,32.3C287.7,259.6,308.3,253.8,300.1,227.3z"/>
	<path class="st4" d="M253.7,229.8c0,0,11.4,5.6,8.8,9.5C259.8,243.1,253.7,229.8,253.7,229.8z"/>
	<path class="st4" d="M253.7,240.9c0,0,7.3,7.5,5.8,10.2S253.7,240.9,253.7,240.9z"/>
	<path class="st4" d="M312.5,178.5c0,0,2.9,4.9,3.1,8S312.5,178.5,312.5,178.5z"/>
	<path class="st4" d="M312.5,172c0,0,1.4-1.2,5.1,0C321.2,173.2,312.5,172,312.5,172z"/>
	<path class="st4" d="M298.5,313.9c-6,0.9-12.2,0.1-17.8-2.3l-3.1,7.8l-0.3-3.6c0.5-3,1.5-6.3,3.4-7.1
		C280.7,308.7,287.4,314.1,298.5,313.9z"/>
	<path class="st4" d="M248.6,324.1c0,0,14.9,3.1,19.1,2.5L248.6,324.1z"/>
	<path class="st4" d="M250.2,328c0,0,6.4-0.3,9.6,1L250.2,328z"/>
	<path class="st4" d="M250.9,330.7c2.9,0.6,5.9,1,8.8,1.2L250.9,330.7z"/>
	<path class="st4" d="M250.5,364.1c0.3-0.2,12.8-3.1,14.3-1L250.5,364.1z"/>
	<path class="st4" d="M250.5,367.9c0,0,10.8-1.3,11.1,0C261.9,369.2,250.5,367.9,250.5,367.9z"/>
	<path class="st4" d="M250.5,371.4c0,0,11.6-2.4,12.9-1.8C264.8,370.2,250.5,371.4,250.5,371.4z"/>
	<path class="st4" d="M251.1,453l-13.1,9c0,0,0.1-1.1,0.2-2.6c2.9-7.2,6.7-11,6.7-11c3-0.8,4.8-0.1,6,1.3
		C250.9,451.7,251.1,453,251.1,453z"/>
	<path class="st15" d="M252.4,461.1c-1.9,4.2-2.8,8.8-2.7,13.4c0.1,3.8-0.9,7.5-2.8,10.8c-0.3,0.5-0.6,0.9-0.9,1.3
		c0,0-9.1-0.1-12.3-2.7c-0.4-0.3-0.7-0.6-0.9-1.1c-1.8-3.6,3.6-17.6,3.6-17.6c2.8-10.7,8.6-16.5,8.6-16.5
		C255.1,446.2,252.4,461.1,252.4,461.1z"/>
	<path class="st4" d="M246.9,485.3c-0.3,0.5-0.6,0.9-0.9,1.3c0,0-9.1-0.1-12.3-2.7c1.6-5.2,6.6-20.9,8.9-18.2
		C244.8,468.2,246.3,480.2,246.9,485.3z"/>
	<path class="st15" d="M245.6,466.6l-0.6,23.5h3.1c0,0,0.5-20.6,1.9-23.5C251.3,463.8,245.6,466.6,245.6,466.6z"/>
	<path class="st4" d="M283.6,468.6c0,0-13.4-12.7-12-13.7c0.4-0.3,0.7-1.3,1.1-2.8c2.6-0.4,7,0.6,10.7,10.9
		C283.4,466,283.6,468.6,283.6,468.6z"/>
	<path class="st15" d="M285.6,482.7c-0.1,0-0.2,0.1-0.3,0.1c-1.6,0.3-7.4,0.1-10.6,0c-1.2,0-2.2-1.1-2.2-2.3c0-0.9,0-1.9-0.1-3.1
		c-0.2-3.6-0.6-7.9-1.9-8.8c-2.3-1.8-4.1-7.7,0-15.2c0,0,7.8-6,13.5,12c0,0,0.5,5.1,3,6.9C289.4,474.1,286.7,482.2,285.6,482.7z"/>
	<path class="st4" d="M285.3,482.8c-1.6,0.3-7.4,0.1-10.6,0c-1.2,0-2.2-1.1-2.2-2.3c0-0.9,0-1.9-0.1-3.1c1-4.4,2.4-8.8,4.2-9.9
		C276.6,467.6,282.1,466.9,285.3,482.8z"/>
	<polygon class="st15" points="271.5,467 273,486.6 274.8,486.6 274.8,465.4 	"/>
	<path class="st4" d="M276,127c-5.3,0.4-10.4,2-14.9,4.8c-1.2,0.7-2.3,1.6-2.8,2.8c-0.4,1.1-0.2,2.3-0.2,3.5
		c0.2,10-11,17.6-10.7,27.7c0.1,4,2.1,7.7,2.5,11.7c0.6,6.6-3.3,12.7-7.1,18.2c3.9,0.2,7.7-1,10.6-3.5c4,13.2,4.5,27.2,1.5,40.7h5.4
		c0.5,0,1.1,0,1.6,0.2c0.5,0.2,0.9,0.5,1.2,0.9c5,5,8.4,12.4,6.5,19.2l11.4-4.3c2.7-1,5.5-2.1,7.9-3.8s4.4-4.1,4.9-7
		c0.3-1.8,0.2-3.8,1.7-4.9c0.7-0.4,1.5-0.7,2.3-0.8c3.1-1.1,4.5-4.7,5.2-8c0.8-4,1-8.1,0.7-12.2c-0.5-6.8-2.5-13.8-0.9-20.4
		c0.9-3.7,3-7.2,3.2-11.1c0.3-6.4-4.7-11.8-5.4-18.2c-0.5-4.4,1.1-8.9,0.6-13.3c-0.6-4.6-3.4-8.7-7.5-10.8c-1.4-0.7-2.9-1.2-4.3-2
		c-3.2-1.8-5.2-5.1-8.1-7.4c-2.9-2.3-7.7-3.1-9.8-0.2L276,127z"/>
	<path class="st17" d="M276,126.3c-5.3,0.4-10.4,2-14.9,4.8c-1.2,0.7-2.3,1.6-2.8,2.8c-0.4,1.1-0.2,2.3-0.2,3.5
		c0.2,10-11,17.6-10.7,27.7c0.1,4,2.1,7.7,2.5,11.7c0.6,6.6-3.3,12.7-7.1,18.2c3.9,0.2,7.7-1,10.6-3.5c4,13.2,4.5,27.2,1.5,40.7h5.4
		c0.5,0,1.1,0,1.6,0.2c0.5,0.2,0.9,0.5,1.2,0.9c5,5,8.4,12.4,6.5,19.2l11.4-4.3c2.7-1,5.5-2.1,7.9-3.8s4.4-4.1,4.9-7
		c0.3-1.8,0.2-3.8,1.7-4.9c0.7-0.4,1.5-0.7,2.3-0.8c3.1-1.1,4.5-4.7,5.2-8c0.8-4,1-8.1,0.7-12.2c-0.5-6.8-2.5-13.8-0.9-20.4
		c0.9-3.7,3-7.2,3.2-11.1c0.3-6.4-4.7-11.8-5.4-18.2c-0.5-4.4,1.1-8.9,0.6-13.3c-0.6-4.6-3.4-8.7-7.5-10.8c-1.4-0.7-2.9-1.2-4.3-2
		c-3.2-1.8-5.2-5.2-8.1-7.4s-7.7-3.1-9.8-0.2L276,126.3z"/>
	<g class="st18">
		<path d="M258,135c0,0.2,0,0.5,0,0.7C258,135.4,258,135.2,258,135z"/>
		<path d="M300.4,158.3c0.2-3.1,0.9-6.2,0.6-9.3C300.9,152.1,300.2,155.2,300.4,158.3z"/>
		<path d="M249.9,173.7c-0.3-3.6-2-7-2.4-10.6c-0.1,0.7-0.1,1.3-0.1,2c0.1,3.9,2.1,7.6,2.5,11.5C250,175.6,250,174.7,249.9,173.7z"
			/>
		<path d="M302.8,188.1c-0.5,2.4-0.7,4.8-0.6,7.2c0.1-1.4,0.3-2.8,0.6-4.2c0.9-3.7,3-7.2,3.2-11.1c0-0.7,0-1.4-0.1-2.1
			C305.4,181.4,303.6,184.7,302.8,188.1z"/>
		<path d="M253.5,188.4c-2.4,2-5.4,3.3-8.6,3.5c-0.7,1-1.4,2.1-2,3.1c3.9,0.2,7.7-1,10.6-3.5c2.1,7.1,3.3,14.4,3.4,21.8
			C257,204.8,255.9,196.4,253.5,188.4z"/>
		<path d="M302.9,220.6c-0.6,3.3-2,6.9-5.2,8c-0.8,0.2-1.5,0.5-2.3,0.8c-1.4,1-1.3,3.1-1.7,4.9c-0.5,2.9-2.5,5.3-4.9,7
			s-5.2,2.7-7.9,3.8l-10.9,4.1c-0.1,1.1-0.2,2.2-0.5,3.2l11.4-4.3c2.7-1,5.5-2.1,7.9-3.8c2.4-1.7,4.4-4.1,4.9-7
			c0.3-1.8,0.2-3.8,1.7-4.9c0.7-0.4,1.5-0.7,2.3-0.8c3.1-1.1,4.5-4.7,5.2-8c0.7-3.4,0.9-6.9,0.8-10.3
			C303.6,215.8,303.4,218.2,302.9,220.6z"/>
		<path d="M263.1,230.2c-0.3-0.4-0.8-0.7-1.2-0.9c-0.5-0.2-1-0.2-1.6-0.2h-4.8c-0.2,1-0.4,2-0.6,3h5.4c0.5,0,1.1,0,1.6,0.2
			c0.5,0.2,0.9,0.5,1.2,0.9c3.7,3.7,6.5,8.6,6.9,13.7C270.7,240.8,267.6,234.6,263.1,230.2z"/>
	</g>
	<path class="st4" d="M236.5,250c0,0,4.3-1.8,5.3,0S236.5,250,236.5,250z"/>
	<path class="st4" d="M238,253.2c0,0,4.3-1.8,5.3,0C244.3,255,238,253.2,238,253.2z"/>
</g>
<g>
	<path class="st0" d="M507,17.6c0,0-22.2-1.3-19.6,14.2c0,0-0.5,2.7,2,4c0,0,0-1.2,2.3-0.8c0.8,0.1,1.6,0.2,2.4,0.1
		c1.1-0.1,2.1-0.5,2.9-1.2l0,0c0,0,6.2-2.6,8.7-12.8c0,0,1.8-2.2,1.8-2.8l-3.7,1.6c0,0,1.3,2.7,0.3,4.9c0,0-0.1-4.9-0.8-4.7
		c-0.1,0-1.9,0.9-1.9,0.9s2.2,4.7,0.5,8.1c0,0,0.6-5.8-1.2-7.8l-2.6,1.6c0,0,2.6,4.9,0.8,8.8c0,0,0.4-6.1-1.4-8.5l-2.4,1.9
		c0,0,2.4,4.8,1,8.1c0,0-0.2-7.1-1.5-7.6c0,0-2.1,1.8-2.4,2.6c0,0,1.7,3.5,0.6,5.3c0,0-0.6-4.7-1.2-4.7c0,0-2.1,3.1-2.3,5.3
		c0.1-2,0.7-3.9,1.8-5.6c-1.2,0.2-2.3,0.8-3.2,1.7c0,0,0.3-2.2,3.7-2.4c0,0,1.7-2.4,2.2-2.5c0,0-3.4-0.3-5.4,0.6c0,0,1.8-2.1,6-1.2
		l2.3-1.9c0,0-4.4-0.6-6.3,0.1c0,0,2.2-1.8,6.9-0.5l2.6-1.5c0,0-3.8-0.8-6-0.5c0,0,2.4-1.3,6.8,0.1l1.8-0.8c0,0-2.8-0.5-3.6-0.6
		s-0.9-0.3-0.9-0.3c1.7-0.3,3.5-0.1,5.2,0.6C503.2,19.3,507.1,17.9,507,17.6z"/>
	<path class="st0" d="M475.4,5c0,0-18.7,12.1-7.3,23.1c0,0,1.2,2.5,4,2.1c0,0-0.7-1,1.4-2c0.7-0.4,1.4-0.8,2-1.3
		c0.8-0.7,1.4-1.7,1.7-2.7l0,0c0,0,3.5-5.8-0.6-15.4c0,0,0.1-2.9-0.3-3.3l-2.1,3.5c0,0,2.6,1.4,3.2,3.8c0,0-3-3.8-3.5-3.3
		c-0.1,0.1-1,1.9-1,1.9s4.6,2.5,5.3,6.2c0,0-2.9-5-5.6-5.5l-1.2,2.8c0,0,5,2.4,5.9,6.6c0,0-3.2-5.2-6.1-6l-0.8,2.9
		c0,0,4.8,2.4,5.5,6c0,0-4.4-5.6-5.7-5.3c0,0-0.6,2.7-0.4,3.5c0,0,3.4,1.8,3.7,3.9c0,0-3.3-3.4-3.7-3.1c0,0,0.2,3.8,1.3,5.6
		c-1.1-1.7-1.7-3.6-1.9-5.5c-0.8,0.9-1.4,2-1.6,3.2c0,0-1.1-2,1.6-4.1c0,0,0-2.9,0.3-3.3c0,0-2.9,1.8-4,3.7c0,0,0.2-2.7,4.2-4.5
		l0.8-2.9c0,0-3.9,2.1-5,3.8c0,0,0.6-2.8,5.3-4.5l1.2-2.8c0,0-3.5,1.6-5.2,3.2c0,0,1.2-2.4,5.5-3.9l1-1.8c0,0-2.5,1.2-3.2,1.6
		c-0.7,0.4-0.9,0.3-0.9,0.3c1.2-1.3,2.8-2.2,4.5-2.6C473.3,8.7,475.6,5.2,475.4,5z"/>
	<path class="st0" d="M447,19.1c0,0-11.2,19.3,3.9,23.9c0,0,2.2,1.7,4.5,0c0,0-1-0.5,0.3-2.4c0.5-0.7,0.9-1.4,1.2-2.1
		c0.4-1,0.5-2.1,0.2-3.2l0,0c0,0,0.5-6.7-7.5-13.5c0,0-1.2-2.6-1.8-2.8l-0.3,4.1c0,0,3,0.1,4.5,2c0,0-4.4-2.1-4.6-1.4
		c0,0.1,0,2.2,0,2.2s5.2,0.2,7.6,3.2c0,0-4.9-3.2-7.5-2.4l0.2,3c0,0,5.5-0.1,8.3,3.2c0,0-5.3-3.1-8.2-2.6l0.6,3c0,0,5.4,0,7.6,2.8
		c0,0-6.4-3-7.5-2.1c0,0,0.7,2.7,1.2,3.3c0,0,3.9,0.1,5,1.8c0,0-4.5-1.6-4.7-1.1c0,0,1.9,3.3,3.7,4.4c-1.7-1-3.2-2.4-4.2-4.1
		c-0.3,1.2-0.3,2.4,0,3.6c0,0-1.8-1.3-0.5-4.4c0,0-1.3-2.6-1.3-3.1c0,0-1.8,2.9-1.9,5.1c0,0-1.1-2.5,1.7-5.9l-0.7-3
		c0,0-2.5,3.7-2.8,5.7c0,0-0.7-2.8,2.7-6.4l-0.2-3c0,0-2.4,3-3.2,5.1c0,0-0.1-2.7,3.1-6l0.1-2c0,0-1.8,2.2-2.2,2.9
		c-0.4,0.7-0.7,0.6-0.7,0.6c0.5-1.7,1.5-3.2,2.8-4.4C446.8,23.3,447.2,19.1,447,19.1z"/>
</g>
<path class="st2" d="M542.8,238.5c-4.6,0-8.3,3.7-8.3,8.3c0,4.6,3.7,8.3,8.3,8.3c4.6,0,8.3-3.7,8.3-8.3l0,0
	C551.1,242.3,547.4,238.6,542.8,238.5z M518.4,173v8.3h8.3l15,30.4l-6.3,10.2c-0.7,1.2-1,2.6-1,4c0,5.6,3.8,8.3,9,8.3h48.8v-8h-47.8
	c-0.5,0-1-0.4-1-0.9c0,0,0-0.1,0-0.1c0.1-0.4,0.3-0.7,0.4-1l4.2-6.6h31.1c3.1,0,5.9-1.7,7.3-4.4l15-25.8c0.3-0.7,0.4-1.4,0.4-2.1
	c0-2.2-1.8-4-4.1-4c0,0-0.1,0-0.1,0h-61.8l-4-8.3L518.4,173z M583.9,238.5c-4.6,0-8.3,3.7-8.3,8.4c0,4.6,3.7,8.3,8.4,8.3
	c4.6,0,8.3-3.7,8.3-8.3C592.2,242.3,588.5,238.6,583.9,238.5z"/>
<polygon class="st9" points="573.2,196.1 566.2,196.1 566.2,189.1 561,189.1 561,196.1 554,196.1 554,201.4 561,201.4 561,208.4 
	566.2,208.4 566.2,201.4 573.2,201.4 "/>
</svg>
