<?xml version="1.0" encoding="utf-8"?>
<!-- Generator: Adobe Illustrator 23.0.5, SVG Export Plug-In . SVG Version: 6.00 Build 0)  -->
<svg version="1.1" id="ada6f7ae-8394-4767-8700-18704e9e9034"
	 xmlns="http://www.w3.org/2000/svg" xmlns:xlink="http://www.w3.org/1999/xlink" x="0px" y="0px" viewBox="0 0 700 500"
	 style="enable-background:new 0 0 700 500;" xml:space="preserve">
<style type="text/css">
	.st0{fill:#3F3D56;}
	.st1{opacity:0.1;enable-background:new    ;}
	.st2{opacity:0.5;}
	.st3{fill:#36334A;}
	.st4{fill:#90CAF9;}
	.st5{opacity:0.3;fill:#90CAF9;enable-background:new    ;}
	.st6{fill:#E6E8EC;}
	.st7{fill:none;stroke:#FFFFFF;stroke-linecap:round;stroke-miterlimit:10;}
	.st8{fill:none;stroke:#FF00FF;stroke-miterlimit:10;}
	.st9{fill:none;stroke:#3F3D56;stroke-width:4;stroke-miterlimit:10;}
	.st10{fill:#57B894;}
	.st11{fill:#656380;}
	.st12{opacity:0.2;enable-background:new    ;}
	.st13{fill:#F2F2F2;}
	.st14{fill:#FBBEBE;}
	.st15{fill:#FF6584;}
</style>
<title>note list</title>
<path class="st0" d="M635,479.4v3.1c0,6.6-5.4,12-12,12c-0.4,0-0.7,0-1.1-0.1c-24.5-2.3-48.9-6.7-73.5-5.9
	c-45.4,1.4-91.1,19.9-135,8.5c-12.4-3.2-24.6-8.8-37.4-7.6c-11.4,1.1-21.6,7.5-32.7,10.6c-33.7,9.2-68-14.1-102.9-13.2
	c-23,0.6-45,11.8-68,10.6c-13.3-0.7-26-5.6-39-8.6c-32.4-7.5-65.7-3.3-99-0.7c-4.8,0.4-9-3.2-9.4-8.1c0-0.2,0-0.4,0-0.7v-2.7
	c0-4.8,3.9-8.8,8.8-8.8l589.3-0.5C629.7,467.4,635,472.8,635,479.4C635,479.4,635,479.4,635,479.4z"/>
<path class="st1" d="M655,479.4v3.1c0,6.6-5.4,12-12,12c-0.4,0-0.7,0-1.1-0.1c-24.5-2.3-48.9-6.7-73.5-5.9
	c-45.4,1.4-91.1,19.9-135,8.5c-12.4-3.2-24.6-8.8-37.4-7.6c-11.4,1.1-21.6,7.5-32.7,10.6c-33.7,9.2-68-14.1-102.9-13.2
	c-23,0.6-45,11.8-68,10.6c-13.3-0.7-26-5.6-39-8.6c-32.4-7.5-65.7-3.3-99-0.7c-4.8,0.4-9-3.2-9.4-8.1c0-0.2,0-0.4,0-0.7v-2.7
	c0-4.8,3.9-8.8,8.8-8.8l589.3-0.5C649.7,467.4,655,472.8,655,479.4C655,479.4,655,479.4,655,479.4z"/>
<path class="st0" d="M655,473.6v3.1c0,0.4,0,0.9-0.1,1.3c-0.7,6.5-6.5,11.3-13,10.6c-24.5-2.3-48.9-6.7-73.5-5.9
	c-45.4,1.4-91.1,19.9-135,8.5c-12.4-3.2-24.6-8.8-37.4-7.6c-11.4,1.1-21.6,7.5-32.7,10.6c-33.7,9.2-68-14.1-102.9-13.2
	c-23,0.6-45,11.8-68,10.6c-13.3-0.7-26-5.6-39-8.6c-32.3-7.5-65.7-3.3-99-0.7c-4.5,0.3-8.5-2.8-9.3-7.2c-0.1-0.5-0.1-1-0.1-1.5v-2.7
	c0-4.8,3.9-8.8,8.8-8.8l147.7-0.1l301.7-0.3l139.8-0.1C649.7,461.7,655,467,655,473.6C655,473.6,655,473.6,655,473.6z"/>
<path class="st1" d="M490.7,463.6c0,1.4-2.7,2.7-7.8,4c-20.2,5-77.2,8.6-144.4,8.6c-66.2,0-122.5-3.5-143.4-8.3
	c-5.6-1.3-8.8-2.7-8.8-4.2c0-0.5,0.4-1,1.1-1.5l301.7-0.3C490.2,462.4,490.7,462.9,490.7,463.6z"/>
<g class="st2">
	<path class="st3" d="M402.6-2.1h227.9c6.6,0,11.9,5.3,11.9,11.9v51.9c0,6.6-5.3,11.9-11.9,11.9H402.6c-6.6,0-11.9-5.3-11.9-11.9
		V9.8C390.7,3.2,396-2.1,402.6-2.1z"/>
	<rect x="421.4" y="14.2" class="st4" width="58.2" height="13.2"/>
	<rect x="421.4" y="35.5" class="st5" width="178.5" height="6.9"/>
	<rect x="421.4" y="50.5" class="st5" width="71.4" height="6.9"/>
</g>
<g class="st2">
	<path class="st3" d="M87,59.6h227.9c6.6,0,11.9,5.3,11.9,11.9v51.9c0,6.6-5.3,11.9-11.9,11.9H87c-6.6,0-11.9-5.3-11.9-11.9V71.5
		C75.1,64.9,80.4,59.6,87,59.6z"/>
	<rect x="105.7" y="75.9" class="st3" width="58.2" height="13.2"/>
	<rect x="105.7" y="97.2" class="st3" width="178.5" height="6.9"/>
	<rect x="105.7" y="112.2" class="st3" width="71.4" height="6.9"/>
	<path class="st3" d="M87,59.6h227.9c6.6,0,11.9,5.3,11.9,11.9v51.9c0,6.6-5.3,11.9-11.9,11.9H87c-6.6,0-11.9-5.3-11.9-11.9V71.5
		C75.1,64.9,80.4,59.6,87,59.6z"/>
	<rect x="105.7" y="75.9" class="st4" width="58.2" height="13.2"/>
	<rect x="105.7" y="97.2" class="st5" width="178.5" height="6.9"/>
	<rect x="105.7" y="112.2" class="st5" width="71.4" height="6.9"/>
</g>
<path class="st0" d="M464.5,130.4h3.6c0.8,0,1.4,0.6,1.4,1.4v50.4c0,0.8-0.6,1.4-1.4,1.4h-3.6c-0.8,0-1.4-0.6-1.4-1.4v-50.4
	C463.1,131,463.7,130.4,464.5,130.4z"/>
<path class="st0" d="M249.3,88.7h1.7c0.5,0,0.9,0.4,0.9,0.9v15.7c0,0.5-0.4,0.9-0.9,0.9h-1.7c-0.5,0-0.9-0.4-0.9-0.9V89.6
	C248.4,89.1,248.8,88.7,249.3,88.7z"/>
<path class="st0" d="M249.3,120.8h2c0.6,0,1.1,0.5,1.1,1.1v28.4c0,0.6-0.5,1.1-1.1,1.1h-2c-0.6,0-1.1-0.5-1.1-1.1v-28.4
	C248.3,121.2,248.7,120.8,249.3,120.8z"/>
<path class="st0" d="M249.3,162h1.9c0.6,0,1,0.5,1,1v28.8c0,0.6-0.5,1-1,1h-1.9c-0.6,0-1-0.5-1-1V163
	C248.3,162.4,248.8,162,249.3,162z"/>
<path class="st0" d="M272.8,30.7h171.4c12.3,0,22.4,10,22.4,22.4v394.6c0,12.3-10,22.4-22.4,22.4H272.8c-12.3,0-22.4-10-22.4-22.4
	V53.1C250.4,40.8,260.5,30.7,272.8,30.7z"/>
<path class="st6" d="M339.3,43.9h27c0.9,0,1.6,0.7,1.6,1.6v2.9c0,0.9-0.7,1.6-1.6,1.6h-27c-0.9,0-1.6-0.7-1.6-1.6v-2.9
	C337.7,44.6,338.4,43.9,339.3,43.9z"/>
<circle class="st6" cx="375.9" cy="46.9" r="3.5"/>
<path class="st3" d="M453.2,59.4v382c0,9.5-7.7,17.2-17.2,17.2H281c-9.5,0-17.2-7.7-17.2-17.2v-382c0-9.5,7.7-17.2,17.2-17.2l0,0
	h23.2v3c0,7.8,6.3,14.1,14.1,14.1h78.9c7.8,0,14.1-6.3,14.1-14.1v-3h24.7C445.5,42.2,453.2,49.9,453.2,59.4z"/>
<rect x="269.2" y="78.7" class="st0" width="19.4" height="2.5"/>
<rect x="269.2" y="83.1" class="st0" width="19.4" height="2.5"/>
<rect x="269.2" y="87.5" class="st0" width="19.4" height="2.5"/>
<rect x="269.2" y="78.7" class="st0" width="19.4" height="2.5"/>
<rect x="269.2" y="83.1" class="st0" width="19.4" height="2.5"/>
<rect x="269.2" y="87.5" class="st0" width="19.4" height="2.5"/>
<path class="st0" d="M444.4,85h-0.6l-0.2-0.2c0.7-0.9,1.1-1.9,1.1-3.1c0-2.6-2.1-4.6-4.7-4.6c-2.6,0-4.6,2.1-4.6,4.7
	c0,2.6,2.1,4.6,4.7,4.6c1.1,0,2.2-0.4,3.1-1.1l0.2,0.2V86l3.6,3.6l1.1-1.1L444.4,85z M440,85c-1.8,0-3.2-1.4-3.3-3.2
	c0-1.8,1.4-3.2,3.2-3.3c1.8,0,3.2,1.4,3.3,3.2c0,0,0,0,0,0C443.3,83.5,441.9,85,440,85C440.1,85,440.1,85,440,85L440,85z"/>
<rect x="269.2" y="123.2" class="st4" width="58.2" height="13.2"/>
<rect x="269.2" y="144.5" class="st5" width="178.5" height="6.9"/>
<rect x="269.2" y="159.5" class="st5" width="71.4" height="6.9"/>
<rect x="269.2" y="276" class="st4" width="58.2" height="13.2"/>
<rect x="269.2" y="297.3" class="st5" width="178.5" height="6.9"/>
<rect x="269.2" y="312.3" class="st5" width="71.4" height="6.9"/>
<rect x="269.2" y="352.4" class="st4" width="58.2" height="13.2"/>
<rect x="269.2" y="373.7" class="st5" width="178.5" height="6.9"/>
<rect x="269.2" y="388.7" class="st5" width="71.4" height="6.9"/>
<circle class="st4" cx="415.8" cy="421.3" r="21.3"/>
<path class="st7" d="M426.6,419.6v10.3c0,0.4-0.4,0.8-0.8,0.8h-21c-0.4,0-0.8-0.4-0.8-0.8v-16.4c0-0.4,0.4-0.8,0.8-0.8h14.6"/>
<line class="st7" x1="408" y1="418.8" x2="422.2" y2="418.8"/>
<line class="st7" x1="408.2" y1="421.7" x2="422.4" y2="421.7"/>
<line class="st7" x1="408.5" y1="424.6" x2="422.6" y2="424.6"/>
<line class="st8" x1="423.9" y1="411.9" x2="423.9" y2="419"/>
<line class="st8" x1="427.5" y1="415.4" x2="420.4" y2="415.4"/>
<line class="st7" x1="423.9" y1="411.9" x2="423.9" y2="419"/>
<line class="st7" x1="427.5" y1="415.4" x2="420.4" y2="415.4"/>
<path class="st9" d="M601.5,464.6c1.9-3.5-0.3-7.7-2.7-10.8s-5.4-6.3-5.3-10.2c0.1-5.6,6.1-9,10.9-12c3.5-2.2,6.8-4.8,9.7-7.8
	c1.2-1.1,2.2-2.5,3-4c1-2.2,1-4.7,0.9-7.1c-0.2-8-0.6-16.1-1.2-24.1"/>
<path class="st10" d="M625.9,388.2c-0.1-3-1.8-5.7-4.4-7.2l-2,3.9l0.1-4.7c-0.9-0.3-1.9-0.4-2.9-0.4c-4.8,0.2-8.6,4.4-8.3,9.2
	c0.2,4.8,4.4,8.6,9.2,8.3C622.4,397.1,626.1,393,625.9,388.2L625.9,388.2z"/>
<path class="st10" d="M610.2,447.7c-2.2,4.3-7.5,6-11.8,3.8s-6-7.5-3.8-11.8s7.5-6,11.8-3.8c1.9,1,3.4,2.7,4.2,4.7l-5.5,4.5l6-1.4
	C611.2,445.1,610.8,446.4,610.2,447.7z"/>
<path class="st10" d="M605.9,430.6c-4.8,0.3-9-3.3-9.4-8.1c-0.3-4.2,2.5-8.1,6.6-9.1L603,417l2-3.9l0,0c4.8-0.2,8.9,3.5,9.2,8.3
	c0,0,0,0,0,0c0.1,1-0.1,2-0.4,3C612.8,427.9,609.6,430.4,605.9,430.6z"/>
<path class="st10" d="M627.2,416.4c-4.8,0.2-8.9-3.6-9.1-8.4c-0.2-4.8,3.6-8.9,8.4-9.1c1.6-0.1,3.1,0.3,4.5,1.1l-1.6,4.3l3.2-3.1
	c1.7,1.6,2.7,3.7,2.8,6.1c0,0.8,0,1.6-0.2,2.4C634.5,413.5,631.1,416.2,627.2,416.4z"/>
<path class="st1" d="M624.7,390.5c-2,0.2-4,0.9-6,1c-2,0.1-4.3-0.4-5.6-1.9c-0.7-0.9-1-1.9-1.6-2.9c-0.6-0.9-1.3-1.6-2.2-2.1
	c-2.1,4.4-0.2,9.6,4.1,11.7c4.4,2.1,9.6,0.2,11.7-4.1c0.3-0.6,0.5-1.1,0.6-1.7C625.4,390.5,625,390.5,624.7,390.5z"/>
<path class="st1" d="M627.2,416.4c-4.8,0.2-9-3.5-9.2-8.3c-0.1-1.5,0.2-2.9,0.8-4.2c0.7,0.5,1.3,1.1,1.8,1.8c0.6,0.9,1,2,1.7,2.9
	c1.4,1.6,3.7,2.1,5.8,2c2.1-0.1,4.2-0.7,6.3-0.9c0.3,0,0.6,0,0.9-0.1C634.4,413.5,631.1,416.2,627.2,416.4z"/>
<path class="st1" d="M605.9,430.6c-4.8,0.2-9-3.5-9.2-8.3c-0.1-1.4,0.2-2.8,0.8-4.1c0.7,0.5,1.4,1.1,1.9,1.8c0.7,1,1.1,2.1,1.9,3
	c1.5,1.6,4,2.2,6.2,2.2c2.2-0.1,4.3-0.6,6.4-0.8C612.8,428,609.6,430.4,605.9,430.6z"/>
<path class="st1" d="M610.2,447.7c-2,4.4-7.2,6.4-11.6,4.4c-4.4-2-6.4-7.2-4.4-11.6l0,0c0.7,0.5,1.4,1.1,1.9,1.7
	c0.8,1,1.4,2.2,2.4,3.1c1.8,1.8,4.7,2.5,7.3,2.6C607.2,447.9,608.7,447.8,610.2,447.7z"/>
<path class="st11" d="M588.3,460.6c0,0,6.9-0.2,9-1.7c2.1-1.5,10.6-3.3,11.2-0.9c0.5,2.4,10.4,11.9,2.6,11.9s-18.2-1.2-20.3-2.5
	C588.7,466.2,588.3,460.6,588.3,460.6z"/>
<path class="st12" d="M611.2,469.2c-7.8,0.1-18.2-1.2-20.3-2.5c-1.6-1-2.2-4.4-2.4-6h-0.2c0,0,0.4,5.6,2.5,6.9
	c2.1,1.3,12.5,2.5,20.3,2.5c2.3,0,3-0.8,3-2C613.8,468.7,612.9,469.1,611.2,469.2z"/>
<path class="st0" d="M447.1,205.2v51.9c0,6.6-5.3,11.9-11.9,11.9l0,0H263.8v-75.8h171.4C441.7,193.3,447.1,198.6,447.1,205.2
	C447.1,205.2,447.1,205.2,447.1,205.2z"/>
<path class="st13" d="M167.2,182.7h227.9c6.6,0,11.9,5.3,11.9,11.9v51.9c0,6.6-5.3,11.9-11.9,11.9H167.2c-6.6,0-11.9-5.3-11.9-11.9
	v-51.9C155.3,188,160.6,182.7,167.2,182.7z"/>
<path class="st13" d="M167.2,182.7h227.9c6.6,0,11.9,5.3,11.9,11.9v51.9c0,6.6-5.3,11.9-11.9,11.9H167.2c-6.6,0-11.9-5.3-11.9-11.9
	v-51.9C155.3,188,160.6,182.7,167.2,182.7z"/>
<rect x="206" y="198.9" class="st4" width="58.2" height="13.2"/>
<rect x="206" y="220.2" class="st5" width="178.5" height="6.9"/>
<rect x="206" y="235.3" class="st5" width="71.4" height="6.9"/>
<circle class="st0" cx="82.8" cy="152.5" r="22.4"/>
<path class="st0" d="M69.8,326.7c2.3,16.2-0.5,32.7-4.9,48.5c-0.8,2.9-1.7,5.9-3.2,8.5c-1.5,2.6-3.7,4.9-5.5,7.4
	c-3.8,5.2-6,11.3-8,17.3c-5.7,16.7-10.5,33.7-14.3,50.9c-0.2,0.7-0.2,1.5,0,2.2c0.5,1.3,2.2,1.4,3.6,1.4l17.6-0.1
	c0.6-1.2-0.5-2.5-1.3-3.7c-2.5-3.9-0.1-9,2.1-13c5.4-9.9,9.5-20.4,12.4-31.3c1.2-4.6,2.2-9.3,4.1-13.6c2.4-5.2,6.1-9.8,9.1-14.7
	c3.5-5.7,6-11.9,8.6-18.1c3.5-8.6,7.1-17.4,8.5-26.6c1.3-8.7,0.7-17.5-0.2-26.2c0.1-0.9-0.5-1.7-1.4-1.9c-0.2,0-0.4,0-0.5,0
	l-23.6-1.2c-4.9-0.3-6-1.3-5.3,3.5C68.1,319.6,69.3,323.1,69.8,326.7z"/>
<path class="st1" d="M69.8,326.7c2.3,16.2-0.5,32.7-4.9,48.5c-0.8,2.9-1.7,5.9-3.2,8.5c-1.5,2.6-3.7,4.9-5.5,7.4
	c-3.8,5.2-6,11.3-8,17.3c-5.7,16.7-10.5,33.7-14.3,50.9c-0.2,0.7-0.2,1.5,0,2.2c0.5,1.3,2.2,1.4,3.6,1.4l17.6-0.1
	c0.6-1.2-0.5-2.5-1.3-3.7c-2.5-3.9-0.1-9,2.1-13c5.4-9.9,9.5-20.4,12.4-31.3c1.2-4.6,2.2-9.3,4.1-13.6c2.4-5.2,6.1-9.8,9.1-14.7
	c3.5-5.7,6-11.9,8.6-18.1c3.5-8.6,7.1-17.4,8.5-26.6c1.3-8.7,0.7-17.5-0.2-26.2c0.1-0.9-0.5-1.7-1.4-1.9c-0.2,0-0.4,0-0.5,0
	l-23.6-1.2c-4.9-0.3-6-1.3-5.3,3.5C68.1,319.6,69.3,323.1,69.8,326.7z"/>
<path class="st0" d="M74.5,287.2c-4.8,6.9-9.8,14.8-8.2,23.1c1.2,6.3,6,11.1,10.5,15.7c18,18.1,35.7,38.2,41.8,62.9
	c1.6,6.4,2.3,13,3.7,19.4c2.5,11.7,6.9,22.9,11.3,34l11.7,29.7c7.5,0.2,14.2-4.3,17-11.3c-1.5-0.1-3.6-1.6-4.5-2.9
	c-5-6.9-6-15.9-7.3-24.3c-1.4-9.3-3.3-18.6-5.2-27.9l-8.4-41c-1-4.7-1.9-9.5-3.2-14.1c-4.9-18.1-14.2-35.1-15.6-53.7
	c-0.2-2.7-0.3-5.8-2.2-7.8c-2-2.1-5.2-2.5-8.1-2.7C96,285.6,85.9,284.5,74.5,287.2z"/>
<path class="st13" d="M42.8,458.9c-1.3-0.3-2.6-0.5-3.9-0.5c-2.6,0.1-4.9,1.4-6.4,3.5c-0.7,1.2-1.3,2.4-1.7,3.8l-1.7,4.9
	c-0.5,1.4-1,3.1-0.2,4.4c0.6,0.8,1.3,1.4,2.3,1.8c4.1,1.8,8.7,1.9,13.2,2.4c4.3,0.4,8.7,1.2,12.9,2c1.5,0.3,2.9,0.6,4.4,0.7
	c3.3,0.3,6.7,0,10.1-0.3l3.5-0.3c1.2,0,2.3-0.3,3.4-0.6c1.1-0.4,2-1.2,2.5-2.2c0.9-2.1-1-4.6-3.2-5c-0.9-0.2-1.8-0.1-2.8-0.2
	c-1-0.2-2.1-0.5-3-0.9c-4.4-1.7-8.9-3.5-12.8-6.2c-1.1-0.8-2.2-1.8-2.1-3.1c0.1-0.6,0.3-1.1,0.6-1.6c0.5-1.3,0.5-2.8,0.1-4.2
	c-0.2-0.6-0.6-1.2-1.2-1.3c-1.7-0.2-1.5,2.2-1.7,3.1c-0.3,1.3-0.9,1.4-2.1,1.3C49.6,459.7,46.2,459.6,42.8,458.9z"/>
<path class="st13" d="M141.7,475.7c0,2.4,0.9,4.8,2.4,6.7c0.5,0.6,1,1,1.7,1.4c1,0.4,2,0.6,3.1,0.5c3-0.1,5.9-0.7,8.7-1.8
	c1-0.4,2-0.8,3-1.1c1.3-0.3,2.6-0.5,3.9-0.6c5.2-0.7,9.7-3.8,14.7-5.3c1.5-0.4,3-0.9,4.4-1.4c2-0.9,3.6-2.5,5.2-4
	c0.9-0.8,1.7-1.8,2.4-2.8c0.9-1.7,1-3.8,1-5.7c0-0.3,0-0.6-0.2-0.9c-0.1-0.2-0.3-0.4-0.6-0.4c-1.5-0.8-3.3-0.4-5-0.1
	c-6.1,1.1-12.3,0.9-18.5,0.7c-1.2,0.2-2.4-0.5-2.8-1.6l-2.3-3.8c-0.7-1.1-1.7-2.3-2.9-1.9c-1,0.3-1.4,1.5-1.3,2.5c0,1,0.4,2,0.2,3
	c-0.3,1.1-1,2.1-2,2.6c-1,0.5-2,0.9-3.1,1.2c-3.5,1-7.5,2.1-10.2,4.6C141.4,469.3,141.6,473.3,141.7,475.7z"/>
<path class="st14" d="M140.5,227.3c1.3-1,2.5-2.3,3.4-3.7c0.8-1.6,1.3-3.4,1.5-5.1l1-6.2c0.5-3.4,1.2-7.1,3.5-9.7
	c2.3-2.6,6.8-3.5,9.2-1c1,1.1,1.4,2.7,1.7,4.2c1.4,9-1.3,18.2-7.4,25.1c-2.8,3.1-6.3,5.5-9.2,8.4c-2.6,2.5-4.8,5.4-7.2,8.1
	c-5.8,6.6-12.4,12.4-19.7,17.2c0.1-4.7,0.7-9.7,0-14.3c-0.5-3.3-1.9-5.1,1.4-7.3C125.9,237.8,133.5,233.2,140.5,227.3z"/>
<path class="st14" d="M77.3,181.5c-0.2,3.3-1.6,6.7-4.4,8.7c7.8,2.7,15.5,5.7,23.1,9c-1.5-1.4-1.9-3.6-2-5.6
	c-0.2-5.3,1.6-10.5,4.3-15.1c0.4-0.6,0.7-1.3,0.7-2c-0.1-1.5-1.8-2.2-3.3-2.5c-4.9-1.2-9.9-1.9-15-2.2c-2.2-0.1-4.7-0.8-4.2,2
	C77.1,176.4,77.5,178.9,77.3,181.5z"/>
<circle class="st14" cx="92.4" cy="164.9" r="18.3"/>
<path class="st15" d="M110.6,214.4c-0.6-1.4-1.4-2.7-2.3-3.9c-3.3-4.8-6.7-9.5-11-13.5c-3.2-2.9-6.7-5.4-10.4-7.7
	c-2-1.4-4.2-2.4-6.5-3.1c-1.4-0.3-2.8-0.5-4.2-0.6l-4.8-0.4c-0.4-0.1-0.8,0-1.3,0c-1.3,0.3-1.9,1.9-1.6,3.2c0.3,1.3,1.3,2.3,2.1,3.3
	c0.2,9.7-4.1,19.3-4.7,29c-1,16.9,9.3,32.7,10.1,49.7c0.1,0.8,0,1.5-0.2,2.3c-0.1,0.4-0.3,0.7-0.5,1c-0.5,1.1-0.5,2.3-0.6,3.4
	c-0.3,4.2-2.2,8.1-5.2,11c0.8,1,1.8,1.7,2.9,2.2c2,0.9,4.4,0.9,6.5,1.6c5.5,1.6,11.2,3.2,17,2.9c0.7-1.6,1.2-3.2,1.3-4.9
	c0.8-0.5,1.8,0.6,1.9,1.5c0.1,1-0.1,2.1,0.6,2.7s1.5,0.6,2.4,0.5c3.5-0.4,6.9-1.6,10.3-2.4c3.4-0.8,7.1-1.2,10.5,0
	c0.7-0.9,0.4-2.1-0.2-3.1s-1.3-1.8-1.6-2.8c-0.2-0.6-0.2-1.2-0.2-1.8c0-5.4,1.1-10.8,0.1-16c-0.3-1.5-0.8-3-1.1-4.6
	c-0.6-3-0.5-6.1-0.5-9.2c0.1-3.1-0.3-6.4-0.4-9.5c0-1.3-0.1-2.6-0.3-3.8c-0.2-1.3-0.6-2.6-0.7-4c-0.3-3.4,1-6.8,0.8-10.2
	C118.6,222,112.6,219.2,110.6,214.4z"/>
<path class="st14" d="M69.2,211.9c-4.4,11.8-6.6,24.2-8.8,36.6l-5,29.1c-1.4,8.2-2.8,16.5-2.8,24.8c0,2.3,0.2,4.7-0.5,7
	c-0.8,3-2.8,5.4-4.3,8.1c-3.1,5.5-4.1,11.9-2.9,18.1c0.5,2.6,1.9,5.5,4.6,5.8c2.2,0.2,4-1.5,5.3-3.3c2.9-4.1,4.3-9,5.6-13.8
	c4.2-15.8,7.1-32,8.7-48.3c0.2-2.1,0.4-4.1,0.9-6.1c0.6-2.1,1.3-4.1,2.1-6.1c1.9-4.8,3.8-9.5,5.8-14.3c4.4-11,8.9-22,15-32.2
	c-6-1.7-12.3-3.8-18.3-5.5C72.9,211.5,71,211.9,69.2,211.9z"/>
<path class="st15" d="M79.7,220.8c-4.2-0.9-8.6-0.6-12.9-0.7c-0.6,0-1.2-0.1-1.7-0.5c-0.9-0.7-0.5-2.1-0.1-3.2l2.1-5
	c0.3-1,0.9-2,1.7-2.8c1.1-0.9,2.5-1.2,4-1.3c4.6-0.5,9.3-0.7,13.7,0.5c4.4,1.2,8.6,4,10.6,8.2c0.8,1.7,1.2,3.9,0.1,5.5
	c-1.6,2.3-5.3,4.9-8,3.7C85.8,223.7,83.3,221.6,79.7,220.8z"/>
<path class="st0" d="M102,136.5c-3.6,0-7.2,1-10.2,2.9c-5.9-5.6-14.3-7.5-22-5.1c-1.2-7-7.8-11.6-14.8-10.4
	c-7,1.2-11.6,7.8-10.4,14.8c0.9,5.3,5.1,9.5,10.4,10.4c-3.9,11.7,2.4,24.4,14.2,28.3c11.7,3.9,24.4-2.4,28.3-14.2
	c0.2-0.5,0.3-1,0.5-1.6c1.3,0.3,2.7,0.4,4,0.4c8.8,0,16-5.7,16-12.8C118,142.2,110.9,136.5,102,136.5z"/>
<path class="st1" d="M105.2,155.7c-1.3,0-2.7-0.1-4-0.4c-0.6,2.3-1.6,4.5-2.9,6.4c1.2,0.2,2.5,0.4,3.8,0.4c8.3,0,15-5,15.9-11.4
	C115,153.7,110.4,155.7,105.2,155.7z"/>
<path class="st1" d="M79.6,171.7c-12.4,0-22.4-10.1-22.4-22.5c0-2.2,0.3-4.4,1-6.5c-6.1-1.1-10.6-6.4-10.6-12.6
	c0-0.8,0.1-1.5,0.2-2.3c-4.8,5.2-4.5,13.3,0.7,18.1c1.8,1.7,4.1,2.8,6.5,3.2c-3.6,11.8,3.1,24.3,14.9,27.9
	c11.7,3.6,24.2-3,27.9-14.7C93.6,168.2,86.8,171.7,79.6,171.7z"/>
</svg>
