<?xml version="1.0" encoding="utf-8"?>
<!-- Generator: Adobe Illustrator 23.0.5, SVG Export Plug-In . SVG Version: 6.00 Build 0)  -->
<svg version="1.1" id="fda871d6-4a4f-49fc-88be-f761f3bd5c82"
	 xmlns="http://www.w3.org/2000/svg" xmlns:xlink="http://www.w3.org/1999/xlink" x="0px" y="0px" viewBox="0 0 700 500"
	 style="enable-background:new 0 0 700 500;" xml:space="preserve">
<style type="text/css">
	.st0{fill:#3F3D56;}
	.st1{fill:#90CAF9;}
	.st2{fill:#F2F2F2;}
	.st3{opacity:0.1;enable-background:new    ;}
	.st4{opacity:0.3;fill:#90CAF9;enable-background:new    ;}
	.st5{fill:#A0616A;}
	.st6{fill:#2F2E41;}
	.st7{fill:#575A89;}
	.st8{fill:#A8A8A8;}
	.st9{opacity:0.2;enable-background:new    ;}
</style>
<title>online page</title>
<ellipse class="st0" cx="219.4" cy="478.8" rx="127.2" ry="21.2"/>
<ellipse class="st0" cx="543.1" cy="471.7" rx="62.6" ry="10.4"/>
<rect x="71.9" y="31.8" class="st0" width="556.2" height="392.2"/>
<rect x="71.9" class="st0" width="556.2" height="36.2"/>
<circle class="st1" cx="89.6" cy="15.9" r="6.2"/>
<path class="st2" d="M177.9,399.6c0,34.4-20.4,46.4-45.7,46.4s-45.7-12-45.7-46.4s45.7-78.1,45.7-78.1S177.9,365.2,177.9,399.6z"/>
<polygon class="st0" points="130.6,440.7 131.1,411.9 150.5,376.3 131.2,407.4 131.4,394.4 144.8,368.7 131.4,391.1 131.4,391.1 
	131.8,367.8 146.1,347.3 131.8,364.1 132.1,321.5 130.6,377.9 130.7,375.6 116.1,353.3 130.5,380.1 129.2,406.1 129.1,405.4 
	112.3,381.9 129.1,407.9 128.9,411 128.8,411.1 128.9,411.4 125.4,477.3 130,477.3 130.6,443.3 147.3,417.4 "/>
<circle class="st1" cx="107.2" cy="15.9" r="6.2"/>
<circle class="st1" cx="124.9" cy="15.9" r="6.2"/>
<rect x="71.9" y="31.8" class="st3" width="556.2" height="4.4"/>
<rect x="113.9" y="94.1" class="st4" width="143.1" height="152.8"/>
<rect x="123.6" y="83.5" class="st1" width="143.1" height="152.8"/>
<rect x="317" y="83.5" class="st4" width="273" height="10.6"/>
<rect x="317" y="114.4" class="st4" width="273" height="10.6"/>
<rect x="317" y="145.3" class="st4" width="273" height="10.6"/>
<rect x="317" y="176.2" class="st4" width="273" height="10.6"/>
<rect x="317" y="207.2" class="st4" width="273" height="10.6"/>
<rect x="317" y="238.1" class="st4" width="273" height="10.6"/>
<rect x="317" y="269" class="st4" width="273" height="10.6"/>
<rect x="317" y="299.9" class="st4" width="273" height="10.6"/>
<rect x="317" y="330.8" class="st4" width="273" height="10.6"/>
<rect x="317" y="361.7" class="st4" width="273" height="10.6"/>
<circle class="st5" cx="242.4" cy="147.9" r="19"/>
<path class="st5" d="M230.1,156.8c0,0,0,20.1-3.4,22.3s26.9,4.5,26.9,4.5V158L230.1,156.8z"/>
<path class="st5" d="M193.2,268.6c0,0,21.2,24.6,25.7,24.6c4.5,0,8.9-16.8,8.9-16.8l-21.2-15.6L193.2,268.6z"/>
<path class="st5" d="M299.4,158l3.4-23.5c0,0,2.2-32.4,8.9-24.6c6.7,7.9,2.2,25.7,2.2,25.7s3.4,25.7,0,29.1
	C310.5,168,299.4,158,299.4,158z"/>
<path class="st6" d="M280.4,284.2l-60.3-5.6c0,0-7.9,36.8-5.6,51.4c2.3,14.6,3.4,55.8,3.4,55.8s2.2,74.8,5.6,79.3
	c3.4,4.5,14.5,3.4,17.8,5.6c3.4,2.2,8.9-4.5,8.9-5.6c0-1.1-6.7-1.1-3.4-7.9c3.4-6.7-8.9-25.7-5.6-34.6c3.4-8.9,8.9-21.2,5.6-25.7
	c-3.4-4.5,2.2-61.5,2.2-61.5s27.9,40.2,27.9,58.1c0,17.9-2.2,59.2-3.4,63.7s-2.2,5.6,0,8.9c2.2,3.4,4.5,6.7,3.4,7.9
	c-1.1,1.1,20.1,0,20.1-6.7c0-6.7-1.1-6.7,1.1-12.3c2.3-5.6,3.4-72.6,3.4-72.6L280.4,284.2z"/>
<path class="st7" d="M226.8,171.3l-3.4,6.7c0,0-35.8,11.1-36.8,34.6l30.1,50.3c0,0,2.2,3.4,1.1,5.6c-1.1,2.2-2.2,1.1-1.1,4.5
	c1.1,3.4,1.1,2.2,1.1,4.5c0,2.3-3.4,1.1,0,2.2c3.4,1.1-1.1,0,11.1,3.4c12.3,3.4,49.1,2.2,49.1,2.2l-6.7-64.8l6.7-13.4l-8.9-26.9
	c0,0-5.6-1.1-8.9,1.1s-7.9-2.2-7.9-2.2S246.8,171.3,226.8,171.3z"/>
<path class="st7" d="M263.6,181.4l5.6-1.1c0,0,22.3-6.7,23.5-12.3c1.1-5.6,6.7-12.3,6.7-12.3s17.8-4.5,16.8,10.1
	c-1.1,14.6-5.6,19-7.9,21.2c-2.3,2.2-26.9,20.1-31.3,20.1S263.6,181.4,263.6,181.4z"/>
<path class="st7" d="M188.8,208.2l-2.2,4.5l-1.1,40.2c0,0-6.7,4.5-3.4,6.7c3.4,2.2,11.1,12.3,13.4,12.3c2.2,0,14.5-5.6,14.5-7.9
	s-2.2-22.3-2.2-22.3L188.8,208.2z"/>
<path class="st6" d="M230.1,465.2c0,0,0,11.1-1.1,13.4c-1.1,2.3-3.4,13.4,3.4,13.4c3.8,0.1,7.7-0.7,11.1-2.2c0,0,0-6.7,3.4-7.9
	c3.4-1.1,11.1-10.1,7.9-12.3c-3.3-2.2-10.1-4.5-10.1-4.5H230.1z"/>
<path class="st6" d="M278.2,470.8c0,0-6.7,15.6,0,16.8c6.7,1.1,15.6,0,16.8-2.2c1.1-2.2,3.4-4.5,5.6-3.4
	c2.2,1.1,21.2-12.3,14.5-14.5c-4-1.3-8.3-1.3-12.3,0l-6.7-3.4L278.2,470.8z"/>
<path class="st6" d="M244.8,168.8c0.4,0,0.6-0.1,0.9-0.3c0.4-0.4,0.8-0.9,0.9-1.5l2.3-8.1c0.9-3.1,2.3-6.6,5.4-7.3
	c0.6,0,1.3-0.2,1.9-0.5c0.7-0.6,1.1-1.6,1.1-2.6l1-10.4c0.3-2.8,0.5-5.7-0.4-8.4c-1.4-3.9-5.5-6.5-9.5-7.2
	c-4.2-0.7-8.4,0.1-12.4,1.3c-6.1,1.9-12.4,4.9-15,10.7c-1.5,3.4-1.6,7.2-1.4,10.9c0.2,3.8,0.7,7.6,2.5,11c1,1.8,2.1,3.4,3.4,4.9
	c1.9,2.5,4.2,7.2,7.3,8.1C236,170.5,241.3,169.3,244.8,168.8z"/>
<path class="st6" d="M493.1,406c0,33.6,21.1,60.8,47.1,60.8"/>
<path class="st1" d="M540.2,466.8c0-34,23.5-61.5,52.6-61.5"/>
<path class="st1" d="M510.2,409c0,31.9,13.4,57.8,30,57.8"/>
<path class="st6" d="M540.2,466.8c0-43.4,27.2-78.5,60.8-78.5"/>
<path class="st8" d="M530.3,467.2c0,0,6.7-0.2,8.7-1.7c1.9-1.5,10.2-3.2,10.8-0.9c0.5,2.3,10.1,11.4,2.5,11.5s-17.5-1.1-19.5-2.4
	C530.7,472.5,530.3,467.2,530.3,467.2z"/>
<path class="st9" d="M552.4,475.4c-7.5,0.1-17.5-1.1-19.5-2.4c-1.5-1-2.1-4.2-2.4-5.8c-0.2,0-0.3,0-0.3,0s0.4,5.4,2.5,6.6
	c2,1.2,12,2.5,19.5,2.4c2.2,0,2.9-0.8,2.9-1.9C554.9,475,554,475.4,552.4,475.4z"/>
</svg>
