<?xml version="1.0" encoding="utf-8"?>
<!-- Generator: Adobe Illustrator 23.0.5, SVG Export Plug-In . SVG Version: 6.00 Build 0)  -->
<svg version="1.1" id="ade8c9af-7e2e-4eda-b5c8-b06129257226"
	 xmlns="http://www.w3.org/2000/svg" xmlns:xlink="http://www.w3.org/1999/xlink" x="0px" y="0px" viewBox="0 0 700 500"
	 style="enable-background:new 0 0 700 500;" xml:space="preserve">
<style type="text/css">
	.st0{fill:#3F3D56;}
	.st1{fill:#90CAF9;}
	.st2{fill:#2F2E41;}
	.st3{opacity:0.1;enable-background:new    ;}
	.st4{fill:#A0616A;}
	.st5{fill:#D0CDE1;}
	.st6{fill:#F2F2F2;}
</style>
<title>web_developer</title>
<path class="st0" d="M565.9,465c-4.6,17.6-20.8,28.6-20.8,28.6s-8.7-17.5-4.1-35.2c4.6-17.6,20.8-28.6,20.8-28.6
	S570.5,447.4,565.9,465z"/>
<path class="st1" d="M558.9,461.3c-13,12.8-14.4,32.3-14.4,32.3s19.5-1.2,32.5-14c13-12.8,14.4-32.3,14.4-32.3
	S571.8,448.5,558.9,461.3z"/>
<path class="st2" d="M89.6,398.4H114l60.1-23.5c0,0,42.7-17.4,39.2,15.7s-9.6,77.5-9.6,77.5s-19.2-8.7-29.6-6.1
	c-10.5,2.6-3.5-53.1-3.5-53.1s-85.4,40.9-93.2,35.7c-7.8-5.2-9.6-41.8-9.6-41.8L89.6,398.4z"/>
<path class="st3" d="M89.6,398.4H114l60.1-23.5c0,0,42.7-17.4,39.2,15.7s-9.6,77.5-9.6,77.5s-19.2-8.7-29.6-6.1
	c-10.5,2.6-3.5-53.1-3.5-53.1s-85.4,40.9-93.2,35.7c-7.8-5.2-9.6-41.8-9.6-41.8L89.6,398.4z"/>
<path class="st4" d="M128,322l29.5,42.4l68.8,57.5c0,0,63.6,14.8,54.9,25.3c-8.7,10.5-61.8-10.5-61.8-10.5s-79.3-57.5-81.9-61.8
	c-2.6-4.4-31.4-45.3-31.4-45.3L128,322z"/>
<path class="st3" d="M128,322l29.5,42.4l68.8,57.5c0,0,63.6,14.8,54.9,25.3c-8.7,10.5-61.8-10.5-61.8-10.5s-79.3-57.5-81.9-61.8
	c-2.6-4.4-31.4-45.3-31.4-45.3L128,322z"/>
<path class="st5" d="M110.5,287.8l19.2,37.5c0,0-4.4,18.3-11.3,20c-7,1.7-36.6-22.6-36.6-22.6L110.5,287.8z"/>
<path class="st3" d="M110.5,287.8l19.2,37.5c0,0-4.4,18.3-11.3,20c-7,1.7-36.6-22.6-36.6-22.6L110.5,287.8z"/>
<path class="st2" d="M344.3,379l5.7,23.4c0.1,0.3,0.1,0.5,0,0.8l-25.7,80.2c-0.2,0.8-1.1,1.2-1.8,0.9c-0.5-0.2-0.9-0.7-1-1.2
	l-3.6-31.3c0-0.2,0-0.4,0.1-0.6l23.6-72.3c0.2-0.8,1.1-1.2,1.8-0.9C343.8,378.1,344.2,378.5,344.3,379z"/>
<polygon class="st6" points="342.2,381 347.5,401 324.8,474.2 319.6,451.6 "/>
<path class="st2" d="M228.1,489.9c0.9,2.6,90.6-0.9,91.5-1.7c0.8-1.1,1.4-2.3,1.9-3.5c0.8-1.7,1.6-3.5,1.6-3.5l-3.5-28.2l-88.9-3.2
	c0,0-2.2,23.9-2.7,34.8C227.9,487.4,227.9,489.4,228.1,489.9z"/>
<polygon class="st3" points="308.3,456.8 310,481.2 270.8,481.2 270.8,456.8 "/>
<polygon class="st3" points="257.7,464.6 258,464.6 256.9,475.1 235.1,475.1 235.1,464.6 "/>
<path class="st3" d="M228.1,489.9c0.9,2.6,90.6-0.9,91.5-1.7c0.8-1.1,1.4-2.3,1.9-3.5h-93.4C227.9,487.4,227.9,489.4,228.1,489.9z"
	/>
<circle class="st4" cx="123.6" cy="236.4" r="39.2"/>
<path class="st4" d="M121,271.2c0,0-13.1,22.6-15.7,34.8c-2.6,12.2-39.2-24.4-39.2-24.4l-4.8-12.6c0,0,34.4-16.1,31.8-29.2
	C90.5,226.8,121,271.2,121,271.2z"/>
<path class="st4" d="M127.9,339.2l35.7,47l85.4,63.6c0,0,61.8,13.1,47.9,22.6c-13.9,9.6-54-8.7-54-8.7s-86.2-46.2-104.5-65.3
	C120.1,379.3,86.1,347,86.1,347L127.9,339.2z"/>
<path class="st2" d="M80,412.4l10.5,16.6l62.4-19.6c13.7-4.3,28.7-2.7,40.8,4.9c10.9,6.9,17.9,17.7,2.2,33.9
	c-31.4,32.2-52.3,14.8-52.3,14.8S38.2,512.5,20.8,488.2C3.4,463.8,2.5,451.6,2.5,451.6S69.6,409.8,80,412.4z"/>
<path class="st5" d="M210.7,469.9c0,0,27.9,18.3-5.2,27c-33.1,8.7-57.5-3.5-57.5-3.5s-28.7,0-28.7-14.8c0-14.8,9.6-16.6,9.6-16.6
	l29.6,4.4C158.4,466.4,194.1,456.8,210.7,469.9z"/>
<path class="st2" d="M155.7,226.5c2.7,1.2,5.3,2.6,8.2,2.9s6.2-0.7,7.6-3.2c0.7-1.4,0.8-3,0.9-4.6c0.1-4.8-0.2-10-3.3-13.7
	c-1.9-2.4-4.7-3.8-6.7-6.1c-1.4-1.6-2.4-3.6-3.4-5.6c-3.9-7.3-9.6-14.3-17.6-16.4c-3.3-0.9-6.8-0.8-10.3-0.8l-20.1,0.3
	c-3.3,0-6.6,0.1-9.7,1c-6.5,2-11.2,7.4-15.5,12.6c-3.2,3.9-6.5,7.8-8.9,12.3c-3.5,6.5-5.2,13.8-5.1,21.1c0,1.9,0.2,3.8,0.7,5.6
	c0.6,1.7,1.3,3.3,2.2,4.8c3.8,7.4,6,16.7,1.8,23.8c7.4-3,14.7-7,19.6-13.3c2.2-2.8,3.9-6.1,6.8-8.2s7.6-2.3,9.5,0.8
	c0.6,1.2,1,2.6,1,4c0.1,2.3,0.1,4.7,1.1,6.7c1,2.1,3.3,3.7,5.5,3.1c3.8-1.1,3.4-6.9,6.4-9.5c2.2-2,5.6-1.6,8.5-2.5
	c3.3-1.1,5.8-3.9,7.2-7.1c1.1-2.4,1.1-8.8,3.1-10.1C147.5,222.9,153.4,225.5,155.7,226.5z"/>
<path class="st5" d="M58.2,264.9c1.8-0.5,3.6-0.5,5.4,0c5.6,1.5,18.1,5.5,20.8,11.5c3.5,7.8,15.7,20,15.7,20s16.6,16.6,13.1,27.9
	c-3.5,11.3-16.6,24.4-16.6,24.4s3.5,54-13.9,67.9c-17.4,13.9-24.4,4.4-24.4,17.4s-54,54-64.5,28.7c0,0,5.2-47,3.5-63.6
	C-4.4,383-1.9,281.2,58.2,264.9z"/>
<path class="st5" d="M86.1,286.9c0,0,53.1,39.2,43.6,55.8c0,0-32.2,15.7-39.2,14.8s-34-31.4-40.9-34S39.1,273.9,86.1,286.9z"/>
<circle class="st6" cx="323.5" cy="157.2" r="43"/>
<path class="st0" d="M679,101.3H437.8V50.9H679V101.3z M438.9,100.3h239V51.9h-239V100.3z"/>
<rect x="421.4" y="61" class="st1" width="240.1" height="49.4"/>
<circle class="st1" cx="269.6" cy="10.1" r="3.7"/>
<circle class="st1" cx="282.3" cy="10.1" r="3.7"/>
<circle class="st1" cx="295.1" cy="10.1" r="3.7"/>
<path class="st0" d="M706.2,291.1H259V0h447.2V291.1z M260,290h445.1V1.1H260V290z"/>
<rect x="259.5" y="16.1" class="st0" width="446.2" height="1.1"/>
<path class="st0" d="M270.6,12.7c-2.3,0-4.2-1.9-4.2-4.2c0-2.3,1.9-4.2,4.2-4.2c2.3,0,4.2,1.9,4.2,4.2
	C274.9,10.8,273,12.7,270.6,12.7z M270.6,5.3c-1.8,0-3.2,1.4-3.2,3.2s1.4,3.2,3.2,3.2c1.8,0,3.2-1.4,3.2-3.2
	C273.8,6.7,272.4,5.3,270.6,5.3z"/>
<path class="st0" d="M283.4,12.7c-2.3,0-4.2-1.9-4.2-4.2c0-2.3,1.9-4.2,4.2-4.2c2.3,0,4.2,1.9,4.2,4.2
	C287.6,10.8,285.7,12.7,283.4,12.7z M283.4,5.3c-1.8,0-3.2,1.4-3.2,3.2s1.4,3.2,3.2,3.2c1.8,0,3.2-1.4,3.2-3.2
	C286.6,6.7,285.2,5.3,283.4,5.3z"/>
<path class="st0" d="M296.1,12.7c-2.3,0-4.2-1.9-4.2-4.2s1.9-4.2,4.2-4.2s4.2,1.9,4.2,4.2c0,0,0,0,0,0
	C300.4,10.8,298.5,12.7,296.1,12.7z M296.1,5.3c-1.8,0-3.2,1.4-3.2,3.2c0,1.8,1.4,3.2,3.2,3.2c1.8,0,3.2-1.4,3.2-3.2c0,0,0,0,0,0
	C299.3,6.7,297.9,5.3,296.1,5.3z"/>
<rect x="399" y="16.6" class="st0" width="1.1" height="274.3"/>
<rect x="449.8" y="151.5" class="st6" width="78.1" height="10.6"/>
<rect x="572.5" y="151.5" class="st6" width="78.1" height="10.6"/>
<path class="st0" d="M532.6,157.4h-79.1v-11.7h79.1V157.4z M454.6,156.3h77v-9.6h-77V156.3z"/>
<rect x="449.8" y="233.8" class="st6" width="78.1" height="10.6"/>
<path class="st0" d="M532.6,239.7h-79.1V228h79.1V239.7z M454.6,238.6h77v-9.6h-77V238.6z"/>
<rect x="450" y="191.6" class="st6" width="200.8" height="10.6"/>
<path class="st0" d="M655.6,198.5H453.8v-11.7h201.8V198.5z M454.8,197.5h199.7v-9.6H454.8V197.5z"/>
<path class="st0" d="M655.3,157.4h-79.1v-11.7h79.1V157.4z M577.3,156.3h77v-9.6h-77V156.3z"/>
<path class="st0" d="M330.8,189c-24.1,0-43.7-19.6-43.7-43.7s19.6-43.7,43.7-43.7s43.7,19.6,43.7,43.7
	C374.5,169.4,354.9,189,330.8,189z M330.8,102.9c-23.4,0-42.4,19-42.4,42.4s19,42.4,42.4,42.4s42.4-19,42.4-42.4
	C373.2,121.9,354.2,102.9,330.8,102.9z"/>
<rect x="489.1" y="492.9" class="st0" width="187.4" height="1.3"/>
</svg>
