<?xml version="1.0" encoding="utf-8"?>
<!-- Generator: Adobe Illustrator 23.0.5, SVG Export Plug-In . SVG Version: 6.00 Build 0)  -->
<svg version="1.1" id="b5708c2f-4f88-4c73-bc81-55ebbc869fb7"
	 xmlns="http://www.w3.org/2000/svg" xmlns:xlink="http://www.w3.org/1999/xlink" x="0px" y="0px" viewBox="0 0 700 500"
	 style="enable-background:new 0 0 700 500;" xml:space="preserve">
<style type="text/css">
	.st0{fill:#E6E6E6;}
	.st1{fill:#FFB8B8;}
	.st2{fill:#2F2E41;}
	.st3{fill:#D0CDE1;}
	.st4{fill:#3F3D56;}
	.st5{fill:#FFFFFF;}
	.st6{fill:#90CAF9;}
</style>
<title>modern_design</title>
<ellipse class="st0" cx="350" cy="487.9" rx="237.3" ry="12.1"/>
<path class="st1" d="M550.7,310.5v2.9c0,0,5.3,18.8-1.2,18.8c-6.5,0-8.8-18.2-8.8-18.2v-3.5L550.7,310.5z"/>
<path class="st1" d="M433.2,243.6l1.2-4.7c0,0,6.5-14.7,11.7-11.7s-2.3,14.1-2.3,14.1l-1.2,2.9L433.2,243.6z"/>
<polygon class="st1" points="470.8,453.9 471.9,463.9 483.1,465.6 483.1,452.7 "/>
<polygon class="st1" points="532.4,450.9 533.6,465.6 546.5,463.9 544.2,449.8 "/>
<polygon class="st2" points="465.5,339.3 463.1,339.9 469.6,402.2 469.6,458 486,455.1 494.3,356.9 519.5,405.1 531.9,453.9 
	551.2,450.4 535.4,389.3 524.8,331.1 "/>
<path class="st2" d="M477.2,460.3c0,0-5.3-3.5-7-1.2c-1.8,2.3-9.4,14.1-9.4,14.1s-18.8,19.4,0,18.8c0,0,12.3,0,14.7-7
	c0,0,0.6-3.5,4.7-3.5c4.1,0,8.8-4.1,8.8-6.5c0-2.3-4.1-14.2-5.9-12.4C481.3,464.5,477.2,460.3,477.2,460.3z"/>
<path class="st2" d="M540.3,460.3c0,0,5.3-3.5,7-1.2c1.8,2.3,9.4,14.1,9.4,14.1s18.8,19.4,0,18.8c0,0-12.3,0-14.7-7
	c0,0-0.6-3.5-4.7-3.5c-4.1,0-8.8-4.1-8.8-6.5c0-2.3,4.1-14.2,5.9-12.4S540.3,460.3,540.3,460.3z"/>
<circle class="st1" cx="466.9" cy="225.1" r="15.5"/>
<polygon class="st1" points="465.8,237.4 474,247.4 488.7,235.1 478.1,226.8 "/>
<path class="st3" d="M470.2,247.7l0.5-4.3l16.5-9.5l22.4-2.1c2.9-0.3,5.5,1.9,5.8,4.8c0,0,0,0,0,0l8.3,88.1l2.9,7.6
	c0,0-51.7,29.4-63.4,7.6l8.8-45.8l-18.2-34.7L470.2,247.7z"/>
<path class="st3" d="M510.1,233c0.4-0.1,0.7-0.2,1-0.3c2.2-0.8,4.7,0,6.1,1.9l26.4,36l10,41.7h-14.1l-9.4-28.2l-15.3-20L510.1,233z"
	/>
<polygon class="st3" points="458.4,258.3 453.7,259.4 439.6,271.8 444.3,243.6 432.6,241.2 423.5,288.5 429.9,295 466.6,280 "/>
<path class="st2" d="M473.1,225c0,0-6.4-9.4-10-6.3c-3.6,3.1-13.9,9.1-16,4.3s6.1-13.5,12.4-15.6c6.2-2.1,17.2-4.9,20.7,4.4
	c2.1,5.9,2.8,12.1,2,18.3L473.1,225z"/>
<ellipse transform="matrix(0.9398 -0.3416 0.3416 0.9398 -48.0715 174.9814)" class="st1" cx="472.7" cy="224" rx="1.7" ry="3"/>
<path class="st4" d="M401.2,116.6h-2.7V42.7c0-23.6-19.1-42.7-42.7-42.7c0,0,0,0,0,0H199.3c-23.6,0-42.7,19.1-42.7,42.7c0,0,0,0,0,0
	v405.2c0,23.6,19.1,42.7,42.7,42.7c0,0,0,0,0,0h156.5c23.6,0,42.7-19.1,42.7-42.7c0,0,0,0,0,0V169.2h2.7V116.6z"/>
<path class="st5" d="M357.5,11.1h-20.4c3.2,7.8-0.6,16.6-8.3,19.8c-1.8,0.7-3.8,1.1-5.7,1.1h-89.6c-8.4,0-15.2-6.8-15.2-15.2
	c0-2,0.4-3.9,1.1-5.7h-19.1c-17.6,0-31.9,14.3-31.9,31.9c0,0,0,0,0,0v404.6c0,17.6,14.3,31.9,31.9,31.9c0,0,0,0,0,0h157.2
	c17.6,0,31.9-14.3,31.9-31.9l0,0V43C389.4,25.4,375.2,11.1,357.5,11.1z"/>
<rect x="245" y="119.8" class="st6" width="55.7" height="5.2"/>
<rect x="245" y="137.7" class="st0" width="97.1" height="5.2"/>
<rect x="245" y="155.6" class="st0" width="97" height="5.2"/>
<rect x="192.1" y="119.9" class="st6" width="41.4" height="41.4"/>
<rect x="245" y="228.5" class="st6" width="55.7" height="5.2"/>
<rect x="245" y="246.4" class="st0" width="97.1" height="5.2"/>
<rect x="245" y="264.3" class="st0" width="97" height="5.2"/>
<rect x="192.1" y="228.6" class="st6" width="41.4" height="41.4"/>
<rect x="245" y="337.2" class="st6" width="55.7" height="5.2"/>
<rect x="245" y="355.1" class="st0" width="97.1" height="5.2"/>
<rect x="245" y="373" class="st0" width="97" height="5.2"/>
<rect x="192.1" y="337.2" class="st6" width="41.4" height="41.4"/>
</svg>
