<?xml version="1.0" encoding="utf-8"?>
<!-- Generator: Adobe Illustrator 23.0.5, SVG Export Plug-In . SVG Version: 6.00 Build 0)  -->
<svg version="1.1" id="a07da818-cf00-4494-8aa7-da1849f04f60"
	 xmlns="http://www.w3.org/2000/svg" xmlns:xlink="http://www.w3.org/1999/xlink" x="0px" y="0px" viewBox="0 0 700 500"
	 style="enable-background:new 0 0 700 500;" xml:space="preserve">
<style type="text/css">
	.st0{fill:#3F3D56;}
	.st1{opacity:0.1;enable-background:new    ;}
	.st2{fill:#FFFFFF;}
	.st3{fill:#F0F0F0;}
	.st4{fill:#E6E8EC;}
	.st5{fill:#90CAF9;}
	.st6{fill:#2F2E41;}
</style>
<title>mobile_images</title>
<path class="st0" d="M347.3,118.6v55.1c0,1.1-0.9,1.9-1.9,1.9H344v287c0,16.5-13.4,30-30,30H134.8c-16.5,0-29.9-13.4-29.9-30l0,0
	v-277h-1c-0.8,0-1.4-0.6-1.4-1.4V153c0-0.8,0.6-1.4,1.4-1.4l0,0h1v-11.8h-1c-0.8,0-1.4-0.6-1.4-1.4v-30.9c0-0.8,0.6-1.4,1.4-1.4h1
	V89.9h-1c-0.7,0-1.3-0.6-1.3-1.3l0,0V71.8c0-0.7,0.6-1.3,1.3-1.3h1V36.4c0-16.5,13.4-29.9,29.9-29.9h179.3c16.5,0,29.9,13.4,30,29.9
	v80.4h1.4C346.5,116.7,347.3,117.6,347.3,118.6z"/>
<polygon class="st1" points="724.6,14.5 328.1,286.7 301,247.3 640.1,14.5 "/>
<polygon class="st1" points="854.9,14.5 854.9,53.9 297,436.9 270,397.5 827.8,14.5 "/>
<polygon class="st1" points="854.9,130.5 854.9,188.5 424.1,484.3 339.6,484.3 "/>
<rect x="-45.9" y="491.9" class="st2" width="872.3" height="1.7"/>
<rect x="497" y="305.5" transform="matrix(0.5789 -0.8154 0.8154 0.5789 -48.4064 560.8925)" class="st3" width="43.6" height="43.6"/>
<path class="st0" d="M523.7,366.8c-5.6,0-10.1-4.5-10.1-10.1s4.5-10.1,10.1-10.1s10.1,4.5,10.1,10.1
	C533.7,362.3,529.2,366.8,523.7,366.8z M523.7,348.4c-4.6,0-8.4,3.8-8.4,8.4s3.8,8.4,8.4,8.4s8.4-3.8,8.4-8.4
	C532,352.1,528.3,348.4,523.7,348.4z"/>
<path class="st3" d="M407,90.8c-5.6,0-10.1-4.5-10.1-10.1s4.5-10.1,10.1-10.1s10.1,4.5,10.1,10.1S412.6,90.8,407,90.8z M407,72.4
	c-4.6,0-8.4,3.8-8.4,8.4s3.8,8.4,8.4,8.4s8.4-3.8,8.4-8.4S411.7,72.4,407,72.4z"/>
<rect x="43.8" y="431" class="st2" width="1.7" height="62.4"/>
<ellipse transform="matrix(1.612222e-02 -0.9999 0.9999 1.612222e-02 -387.0109 468.7364)" class="st2" cx="44.7" cy="431" rx="8.8" ry="8.8"/>
<path class="st2" d="M44.6,469.5c0,0-1.3-27.1-27.1-24"/>
<path class="st4" d="M203.9,21.8H233c1.2,0,2.1,1,2.1,2.1v2.5c0,1.2-0.9,2.1-2.1,2.1h-29.1c-1.2,0-2.1-1-2.1-2.1v-2.5
	C201.8,22.7,202.7,21.8,203.9,21.8z"/>
<circle class="st4" cx="244.1" cy="25.2" r="3.9"/>
<path class="st5" d="M329.7,42.3v422.9c0,10.5-8.5,19-19,19H139c-10.5,0-19-8.5-19-18.9c0,0,0,0,0-0.1V42.3c0-10.5,8.5-19,19-19l0,0
	h25.7v3.3c0,8.6,7,15.6,15.6,15.6h87.3c8.6,0,15.6-7,15.6-15.6v-3.3h27.4C321.2,23.3,329.7,31.8,329.7,42.3L329.7,42.3z"/>
<rect x="128.4" y="147.9" class="st0" width="194.6" height="94.8"/>
<rect x="128.4" y="305.6" class="st0" width="194.6" height="94.8"/>
<circle class="st2" cx="302.9" cy="74.9" r="16.8"/>
<polygon class="st0" points="310.4,74.4 303.4,74.4 303.4,67.4 302.4,67.4 302.4,74.4 295.3,74.4 295.3,75.4 302.4,75.4 302.4,82.5 
	303.4,82.5 303.4,75.4 310.4,75.4 "/>
<path class="st2" d="M206.8,213c5.1,18.8,22.5,30.5,22.5,30.5s9.2-18.9,4.1-37.7s-22.5-30.5-22.5-30.5S201.7,194.1,206.8,213z"/>
<path class="st5" d="M214.3,208.9c14,13.6,15.7,34.5,15.7,34.5s-21-1.1-34.9-14.8c-14-13.6-15.7-34.5-15.7-34.5
	S200.3,195.3,214.3,208.9z"/>
<path class="st2" d="M206.8,370.7c5.1,18.8,22.5,30.5,22.5,30.5s9.2-18.9,4.1-37.7c-5.1-18.8-22.5-30.5-22.5-30.5
	S201.7,351.9,206.8,370.7z"/>
<path class="st5" d="M214.3,366.6c14,13.6,15.7,34.5,15.7,34.5s-21-1.1-34.9-14.8c-14-13.6-15.7-34.5-15.7-34.5
	S200.3,353,214.3,366.6z"/>
<path class="st2" d="M253.1,370.7c-5.1,18.8-22.5,30.5-22.5,30.5s-9.2-18.9-4.1-37.7C231.6,344.7,249,333,249,333
	S258.2,351.9,253.1,370.7z"/>
<path class="st5" d="M245.6,366.6c-14,13.6-15.7,34.5-15.7,34.5s21-1.1,34.9-14.8c13.9-13.7,15.7-34.5,15.7-34.5
	S259.6,353,245.6,366.6z"/>
<path class="st0" d="M747.5,107.9h-16.6V91.3h16.6V107.9z M732.2,106.6h14v-14h-14V106.6z"/>
<path class="st3" d="M757.3,482.9L746,470.8l12.1-11.3l11.3,12.1L757.3,482.9z M747.8,470.9l9.6,10.3l10.3-9.6l-9.6-10.3
	L747.8,470.9z"/>
<circle class="st3" cx="43.9" cy="91.4" r="8.4"/>
<path class="st6" d="M43.9,115.8c-13.5,0-24.4-10.9-24.4-24.4S30.5,67,43.9,67s24.4,10.9,24.4,24.4l0,0
	C68.3,104.9,57.4,115.8,43.9,115.8z M43.9,68.9c-12.5,0-22.5,10.1-22.5,22.5S31.5,114,43.9,114s22.5-10.1,22.5-22.6l0,0
	C66.5,79,56.4,68.9,43.9,68.9z"/>
<rect x="386.8" y="152.9" class="st3" width="275.1" height="22.6"/>
<rect x="421.6" y="205.8" class="st3" width="205.5" height="8.8"/>
<rect x="421.6" y="219.9" class="st3" width="205.5" height="8.8"/>
<rect x="421.6" y="234" class="st3" width="205.5" height="8.8"/>
<rect x="421.6" y="248.2" class="st3" width="205.5" height="8.8"/>
</svg>
